<svg width="24" height="24" viewBox="0 0 24 24" fill="none" xmlns="http://www.w3.org/2000/svg">
<path d="M7.45135 15.8595L3 13.3865M7.45135 15.8595L11.9027 12.8919M7.45135 15.8595V21.3M3 13.3865L7.45135 10.9135M3 13.3865V18.3324L7.45135 21.3M7.45135 10.9135L11.9027 12.8919M7.45135 10.9135V5.47297M11.9027 12.8919V18.3324M11.9027 12.8919V7.45135M11.9027 12.8919L16.8486 15.8595M11.9027 12.8919L16.8486 10.4189M7.45135 21.3L11.9027 18.3324M11.9027 18.3324L16.8486 21.3M11.9027 7.45135L7.45135 5.47297M11.9027 7.45135L16.8486 4.97838M7.45135 5.47297L11.9027 3L16.8486 4.97838M21.3 12.8919L16.8486 15.8595M21.3 12.8919L16.8486 10.4189M21.3 12.8919V18.3324L16.8486 21.3M16.8486 15.8595V21.3M16.8486 10.4189V4.97838" stroke="#8C9FB1" stroke-width="0.989189" stroke-linecap="round" stroke-linejoin="round"/>
</svg>
