<svg width="13" height="17" viewBox="0 0 13 17" fill="none" xmlns="http://www.w3.org/2000/svg">
<mask id="mask0" style="mask-type:alpha" maskUnits="userSpaceOnUse" x="0" y="0" width="13" height="17">
<path d="M7.17745 9.61106C7.17745 9.7584 7.12344 9.89971 7.02729 10.0039C6.93115 10.1081 6.80074 10.1666 6.66477 10.1666H2.56337C2.42741 10.1666 2.297 10.1081 2.20086 10.0039C2.10471 9.89971 2.0507 9.7584 2.0507 9.61106C2.0507 9.46372 2.10471 9.32241 2.20086 9.21822C2.297 9.11403 2.42741 9.0555 2.56337 9.0555H6.66477C6.80074 9.0555 6.93115 9.11403 7.02729 9.21822C7.12344 9.32241 7.17745 9.46372 7.17745 9.61106ZM6.66477 11.2777H2.56337C2.42741 11.2777 2.297 11.3363 2.20086 11.4404C2.10471 11.5446 2.0507 11.6859 2.0507 11.8333C2.0507 11.9806 2.10471 12.1219 2.20086 12.2261C2.297 12.3303 2.42741 12.3888 2.56337 12.3888H6.66477C6.80074 12.3888 6.93115 12.3303 7.02729 12.2261C7.12344 12.1219 7.17745 11.9806 7.17745 11.8333C7.17745 11.6859 7.12344 11.5446 7.02729 11.4404C6.93115 11.3363 6.80074 11.2777 6.66477 11.2777ZM12.3042 5.16661V13.4999C12.3042 13.6473 12.2502 13.7886 12.154 13.8928C12.0579 13.997 11.9275 14.0555 11.7915 14.0555H9.74082V15.7222C9.74082 15.8695 9.68681 16.0108 9.59067 16.115C9.49452 16.2192 9.36412 16.2777 9.22815 16.2777H0.512675C0.376705 16.2777 0.246304 16.2192 0.150159 16.115C0.0540139 16.0108 0 15.8695 0 15.7222V3.49995C0 3.3526 0.0540139 3.2113 0.150159 3.10711C0.246304 3.00292 0.376705 2.94439 0.512675 2.94439H2.56337V1.27772C2.56337 1.13038 2.61739 0.989073 2.71353 0.884886C2.80968 0.7807 2.94008 0.722168 3.07605 0.722168H8.71548C8.78953 0.722163 8.8627 0.739541 8.92996 0.773107C8.99722 0.806674 9.05697 0.855632 9.10511 0.916612L12.1812 4.8055C12.2606 4.90614 12.3042 5.0342 12.3042 5.16661ZM8.71548 7.94439H6.1521C6.01613 7.94439 5.88573 7.88586 5.78958 7.78167C5.69344 7.67749 5.63942 7.53618 5.63942 7.38884V4.0555H1.02535V15.1666H8.71548V7.94439ZM6.66477 5.0055V6.83328H8.11052L6.66477 5.0055ZM11.2788 5.37217L8.47452 1.83328H3.58872V2.94439H6.1521C6.22403 2.94527 6.29498 2.96255 6.36034 2.99509C6.4257 3.02763 6.48401 3.07472 6.53148 3.13328L9.60753 7.02217C9.60753 7.04995 9.63829 7.08328 9.6588 7.11106L9.69468 7.17772C9.72096 7.24476 9.73656 7.31615 9.74082 7.38884V12.9444H11.2788V5.37217Z" fill="#00AEEF"/>
</mask>
<g mask="url(#mask0)">
<rect x="-2.05078" y="-0.389099" width="16.7402" height="17.9211" fill="#2B28B7"/>
</g>
</svg>
