<svg width="50" height="50" viewBox="0 0 50 50" fill="none" xmlns="http://www.w3.org/2000/svg">
<mask id="mask0_24:543" style="mask-type:alpha" maskUnits="userSpaceOnUse" x="10" y="10" width="30" height="30">
<path fill-rule="evenodd" clip-rule="evenodd" d="M25 40C33.2843 40 40 33.2843 40 25C40 16.7157 33.2843 10 25 10C16.7157 10 10 16.7157 10 25C10 33.2843 16.7157 40 25 40ZM17.222 20.0503C16.441 19.2692 16.441 18.0029 17.222 17.2218C18.0031 16.4408 19.2694 16.4408 20.0504 17.2218L25.0002 22.1716L29.9499 17.2218C30.731 16.4408 31.9973 16.4408 32.7784 17.2218C33.5594 18.0029 33.5594 19.2692 32.7784 20.0503L27.8286 25L32.7784 29.9497C33.5594 30.7308 33.5594 31.9971 32.7784 32.7782C31.9973 33.5592 30.731 33.5592 29.9499 32.7782L25.0002 27.8284L20.0504 32.7782C19.2694 33.5592 18.0031 33.5592 17.222 32.7782C16.441 31.9971 16.441 30.7308 17.222 29.9497L22.1718 25L17.222 20.0503Z" fill="black"/>
</mask>
<g mask="url(#mask0_24:543)">
<rect width="50" height="50" fill="black"/>
</g>
</svg>
