<svg width="24" height="24" viewBox="0 0 24 24" fill="none" xmlns="http://www.w3.org/2000/svg">
<g clip-path="url(#clip0)">
<path d="M10.256 22.6369H13.82C14.0854 22.6369 14.275 22.4191 14.275 22.2013V19.66C14.275 19.4059 14.0475 19.2244 13.82 19.2244H10.256C9.9906 19.2244 9.80103 19.4422 9.80103 19.66V22.2013C9.80103 22.4554 9.9906 22.6369 10.256 22.6369Z" stroke="#2B28B7" stroke-width="0.853081" stroke-miterlimit="10"/>
<path d="M5.70616 15.4489H7.29858C7.71564 15.4489 8.01896 15.1221 8.01896 14.7591V10.4027C8.01896 10.0033 7.67773 9.71289 7.29858 9.71289H5.70616C4.98579 9.71289 4.37915 10.2574 4.37915 10.9472V14.1782C4.37915 14.868 4.98579 15.4489 5.70616 15.4489Z" stroke="#2B28B7" stroke-width="0.853081" stroke-miterlimit="10"/>
<path d="M4.37915 13.4885V8.0429C4.56872 4.30363 7.90522 1.36304 12 1.36304C16.2085 1.36304 19.6209 4.48515 19.6209 8.33333C19.6209 8.55116 19.6209 8.73267 19.5829 8.9505V15.5215C19.5829 18.3168 17.2701 20.604 14.2749 20.8944" stroke="#2B28B7" stroke-width="0.853081" stroke-miterlimit="10"/>
<path d="M18.2181 15.4489H16.6257C16.2086 15.4489 15.9053 15.1221 15.9053 14.7591V10.4027C15.9053 10.0033 16.2465 9.71289 16.6257 9.71289H18.2181C18.9384 9.71289 19.5451 10.2937 19.5451 10.9835V14.2145C19.5451 14.868 18.9764 15.4489 18.2181 15.4489Z" stroke="#2B28B7" stroke-width="0.853081" stroke-miterlimit="10"/>
</g>
<defs>
<clipPath id="clip0">
<rect width="16" height="22" fill="white" transform="translate(4 1)"/>
</clipPath>
</defs>
</svg>
