<svg width="24" height="24" viewBox="0 0 24 24" fill="none" xmlns="http://www.w3.org/2000/svg">
<mask id="mask0" style="mask-type:alpha" maskUnits="userSpaceOnUse" x="6" y="8" width="10" height="6">
<path fill-rule="evenodd" clip-rule="evenodd" d="M9.50996 9.49838C9.50996 9.55409 9.48797 9.60755 9.44876 9.64712L7.97084 11.1391C7.88924 11.2214 7.88924 11.3542 7.97084 11.4365L9.44876 12.9285C9.48797 12.9681 9.50996 13.0215 9.50996 13.0772V13.627C9.50996 13.8161 9.28066 13.9101 9.148 13.7753L6.84516 11.4361C6.76418 11.3538 6.76418 11.2218 6.84516 11.1395L9.148 8.80032C9.28066 8.66557 9.50996 8.7595 9.50996 8.94859V9.49838ZM13.2739 9.49838C13.2739 9.55409 13.2959 9.60755 13.3351 9.64712L14.8131 11.1391C14.8947 11.2214 14.8947 11.3542 14.8131 11.4365L13.3351 12.9285C13.2959 12.9681 13.2739 13.0215 13.2739 13.0772V13.627C13.2739 13.8161 13.5033 13.9101 13.6359 13.7753L15.9387 11.4361C16.0197 11.3538 16.0197 11.2218 15.9387 11.1395L13.6359 8.80032C13.5033 8.66557 13.2739 8.7595 13.2739 8.94859V9.49838Z" fill="black"/>
</mask>
<g mask="url(#mask0)">
<rect x="5.83325" y="3.83337" width="13.4583" height="13.4583" fill="#2B28B7"/>
</g>
<path d="M12.27 6.46667L9.92944 17.5844" stroke="#2B28B7" stroke-width="0.702174" stroke-linecap="round" stroke-linejoin="round"/>
<rect x="3.35417" y="1.35417" width="16.2917" height="20.5417" rx="0.354167" stroke="#2B28B7" stroke-width="0.708333"/>
</svg>
