<svg xmlns="http://www.w3.org/2000/svg" viewBox="0 0 1096 267" width="1096" height="267">
	<defs>
		<linearGradient id="grd1" gradientUnits="userSpaceOnUse"  x1="465.715" y1="208.626" x2="555.459" y2="53.186">
			<stop offset="0" stop-color="#0054a6"  />
			<stop offset="0.485" stop-color="#0054a6"  />
			<stop offset="1" stop-color="#008fd4"  />
			<stop offset="1" stop-color="#008fd4"  />
		</linearGradient>
		<clipPath clipPathUnits="userSpaceOnUse" id="cp1">
			<path d="M-119 -533L1214.33 -533L1214.33 800.33L-119 800.33L-119 -533Z" />
		</clipPath>
		<linearGradient id="grd2" gradientUnits="userSpaceOnUse"  x1="116.601" y1="247.315" x2="246.979" y2="21.494">
			<stop offset="0" stop-color="#0054a6"  />
			<stop offset="0.485" stop-color="#0054a6"  />
			<stop offset="1" stop-color="#008fd4"  />
			<stop offset="1" stop-color="#008fd4"  />
		</linearGradient>
	</defs>
	<style>
		tspan { white-space:pre }
		.shp0 { fill: url(#grd1) } 
		.shp1 { fill: #1b1d1d } 
		.shp2 { fill: url(#grd2) } 
	</style>
	<g id="g10">
		<g id="g12">
			<g id="g14">
				<g id="g20">
					<g id="g22">
						<path id="path34" fill-rule="evenodd" class="shp0" d="M625.33 98.11C638.55 98.11 646.96 105.12 646.96 115.14C646.96 122.15 642.85 129.36 632.94 131.26C643.56 133.17 648.77 140.98 648.77 148.88C648.77 159.9 638.95 168.22 625.82 168.22L594.08 168.22L594.08 98.11L625.33 98.11ZM604.69 127.36L623.02 127.36C631.83 127.36 636.14 122.35 636.14 116.74C636.14 111.04 631.54 107.23 624.13 107.23L604.69 107.23L604.69 127.36ZM604.69 159.1L624.62 159.1C632.34 159.1 637.95 154 637.95 147.59C637.95 142.47 634.34 135.86 623.22 135.86L604.69 135.86L604.69 159.1ZM553.84 98.11L553.84 168.22L543.23 168.22L543.23 108.03L517.68 168.22L510.37 168.22L484.83 107.82L484.83 168.22L474.22 168.22L474.22 98.11L491.14 98.11L514.07 152.2L536.91 98.11L553.84 98.11ZM434.6 98.11L434.6 141.18C434.6 158.3 423.58 169.22 406.46 169.22C389.24 169.22 378.22 158.3 378.22 141.18L378.22 98.11L389.04 98.11L389.04 141.07C389.04 152.29 395.65 159.41 406.46 159.41C417.28 159.41 423.78 152.29 423.78 141.07L423.78 98.11L434.6 98.11Z" />
					</g>
				</g>
			</g>
		</g>
		<g id="g36">
			<g id="Clip-Path: g38" clip-path="url(#cp1)">
				<g id="g38">
					<g id="g44">
						<path id="path46" fill-rule="evenodd" class="shp1" d="M742.82 168.22L729 168.22L710.06 139.98L696.35 139.98L696.35 168.22L685.53 168.22L685.53 98.11L716.47 98.11C730.6 98.11 740.51 107.12 740.51 118.84C740.51 129.45 732.8 137.77 721.28 139.58L742.82 168.22ZM716.07 130.96C724.28 130.96 729.89 125.65 729.89 118.94C729.89 112.43 724.28 107.42 716.07 107.42L696.35 107.42L696.35 130.96L716.07 130.96Z" />
					</g>
					<path id="path48" class="shp1" d="M826.24 107.53L777.47 107.53L777.47 98.11L826.24 98.11L826.24 107.53Z" />
					<g id="g50">
						<path id="path52" class="shp1" d="M788.09 158.81L788.09 136.17L824.95 136.17L824.95 127.05L777.47 127.05L777.47 168.22L826.24 168.22L826.24 158.81L788.09 158.81Z" />
					</g>
					<g id="g54">
						<path id="path56" class="shp1" d="M875.13 158.61L875.13 98.11L864.32 98.11L864.32 168.22L911.19 168.22L911.19 158.61L875.13 158.61Z" />
					</g>
					<g id="g58">
						<path id="path60" class="shp1" d="M956.5 158.61L956.5 98.11L945.69 98.11L945.69 168.22L992.56 168.22L992.56 158.61L956.5 158.61Z" />
					</g>
					<g id="g62">
						<path id="path64" class="shp1" d="M1067.37 98.11L1052.55 98.11L1024.8 168.22L1036.52 168.22L1059.96 107.13L1083.4 168.22L1095.11 168.22L1067.37 98.11Z" />
					</g>
				</g>
			</g>
		</g>
		<g id="g66">
			<g id="g68">
				<g id="g74">
					<g id="g76">
						<path id="path88" fill-rule="evenodd" class="shp2" d="M170.85 0.33C178.56 0.33 184.98 5.84 186.43 13.13C217.72 16.16 246.89 28.25 271.23 48.18C274.04 45.65 277.76 44.08 281.83 44.08C290.61 44.08 297.74 51.2 297.74 59.98C297.74 64.05 296.18 67.77 293.64 70.58C313.59 94.93 325.65 124.1 328.69 155.38C335.97 156.83 341.48 163.25 341.48 170.97C341.48 179.72 334.35 186.84 325.59 186.84C316.83 186.84 307.93 179.14 310.04 167.7L266.4 146.51C263.5 150 259.13 152.21 254.24 152.21C249.65 152.21 245.52 150.25 242.63 147.13L186.6 168.97C187.58 178.1 181.6 184.63 174.72 186.37L174.72 234.99C181.81 236.74 187.09 243.13 187.09 250.76C187.09 259.71 179.81 267 170.85 267C159.81 267 154.61 257.46 154.61 250.76C154.61 243.13 159.89 236.74 166.99 234.99L166.99 186.37C160.1 184.63 153.93 177.87 155.11 168.97L100.4 147.65C97.53 151.71 92.8 154.35 87.46 154.35C82.44 154.35 77.96 152 75.04 148.36L31.73 168.09C33.49 179.34 24.87 186.84 16.11 186.84C7.35 186.84 0.23 179.72 0.23 170.97C0.23 163.25 5.74 156.83 13.01 155.38C16.06 124.1 28.12 94.93 48.06 70.58C45.52 67.77 43.97 64.05 43.97 59.98C43.97 51.2 51.1 44.08 59.87 44.08C63.95 44.08 67.66 45.65 70.48 48.18C94.82 28.25 123.98 16.16 155.27 13.13C156.72 5.84 163.15 0.33 170.85 0.33ZM162.67 16.23C162.67 20.35 165.97 24.39 170.85 24.39C175.36 24.39 179.03 20.72 179.03 16.23C179.03 11.71 175.36 8.04 170.85 8.04C166.35 8.04 162.67 11.71 162.67 16.23ZM220.63 81.18L266.24 62.99C265.52 58.94 266.31 56.29 266.9 54.59C243.75 35.44 215.91 23.81 186.05 20.83C185.85 21.48 184.99 24.1 182.8 26.65L220.63 81.18ZM122.04 80.92L158.96 26.79C157.66 25.31 156.48 23.37 155.65 20.83C125.8 23.81 97.96 35.44 74.8 54.59C75.4 56.29 75.93 59.31 75.59 62.15L122.04 80.92ZM174.72 89.08C178.77 89.94 182.26 92.3 184.57 95.57L213.27 84.12L176.46 31.08C175.91 31.28 175.33 31.47 174.72 31.63C174.72 31.63 174.72 89.08 174.72 89.08ZM158.16 95.51C160.28 92.55 163.39 90.34 166.99 89.34L166.99 31.63C166.6 31.53 166.03 31.37 165.36 31.13L129.37 83.88L158.16 95.51ZM281.83 68.16C286.36 68.16 290.02 64.48 290.02 59.98C290.02 55.47 286.36 51.79 281.83 51.79C277.34 51.79 273.67 55.47 273.67 59.98C273.67 64.48 277.34 68.16 281.83 68.16ZM59.87 68.16C64.37 68.16 68.04 64.48 68.04 59.98C68.04 55.47 64.37 51.79 59.87 51.79C55.35 51.79 51.69 55.47 51.69 59.98C51.69 64.48 55.35 68.16 59.87 68.16ZM59.91 75.85C58.19 75.85 56.37 75.57 54.49 74.91C35.32 98.09 23.7 125.9 20.73 155.76C21.98 156.14 25.57 157.4 28.53 161.07L71.86 141.33C71.67 140.4 71.57 139.45 71.57 138.47C71.57 129.7 78.71 122.59 87.46 122.59C88.43 122.59 90.54 122.68 92.96 123.56L117.59 87.45L72.69 69.32C70.46 72.54 65.75 75.85 59.91 75.85ZM248.61 121.51C251.01 120.6 253.16 120.42 254.24 120.42C263 120.42 271.93 128.14 269.79 139.58L313.43 160.78C316.14 157.46 319.73 156.14 320.98 155.76C318.01 125.9 306.39 98.09 287.22 74.91C285.54 75.51 276.63 78.31 269.53 69.98L225.15 87.69L248.61 121.51ZM99.33 127.93C99.67 128.32 100 128.73 100.32 129.18L155.29 107.25C154.96 105.29 155.17 103.42 155.29 102.66L124.93 90.41C124.93 90.41 99.33 127.93 99.33 127.93ZM240.31 128.69C240.91 127.63 241.57 126.72 242.27 125.91L217.79 90.63L187.43 102.75C187.53 103.47 187.74 105.52 187.41 107.32L240.31 128.69ZM171.36 113.51C176.12 113.51 179.89 109.57 179.89 104.97C179.89 99.67 175.42 96.45 171.36 96.45C166.75 96.45 162.82 100.22 162.82 104.97C162.82 109.77 166.82 113.51 171.36 113.51ZM157.91 161.78C161.18 157.18 165.47 155.96 166.99 155.58L166.99 120.59C163.39 119.59 160.28 117.37 158.16 114.41L103.2 136.34C103.5 138.32 103.3 139.81 103.22 140.46L157.91 161.78ZM174.72 155.58C176.24 155.96 180.36 157.06 183.8 161.78L238.89 140.32C238.3 138.43 238.34 136.21 238.34 136.21L184.5 114.46C182.19 117.67 178.71 120 174.72 120.84C174.72 120.84 174.72 155.58 174.72 155.58ZM254.24 144.51C258.75 144.51 262.41 140.83 262.41 136.33C262.41 131.81 258.75 128.14 254.24 128.14C249.72 128.14 246.06 131.81 246.06 136.33C246.06 140.83 249.72 144.51 254.24 144.51ZM87.46 146.65C91.99 146.65 95.65 142.97 95.65 138.47C95.65 133.95 91.99 130.28 87.46 130.28C82.96 130.28 79.29 133.95 79.29 138.47C79.29 142.97 82.96 146.65 87.46 146.65ZM325.59 179.14C330.1 179.14 333.77 175.48 333.77 170.97C333.77 166.46 330.1 162.79 325.59 162.79C321.08 162.79 317.41 166.46 317.41 170.97C317.41 175.48 321.08 179.14 325.59 179.14ZM170.85 179.14C175.36 179.14 179.03 175.48 179.03 170.97C179.03 166.46 175.36 162.79 170.85 162.79C166.35 162.79 162.67 166.46 162.67 170.97C162.67 175.48 166.35 179.14 170.85 179.14ZM16.11 179.14C20.62 179.14 24.3 175.48 24.3 170.97C24.3 166.46 20.62 162.79 16.11 162.79C11.61 162.79 7.93 166.46 7.93 170.97C7.93 175.48 11.61 179.14 16.11 179.14ZM170.85 259.29C175.56 259.29 179.39 255.46 179.39 250.76C179.39 246.05 175.56 242.24 170.85 242.24C166.15 242.24 162.32 246.05 162.32 250.76C162.32 255.46 166.15 259.29 170.85 259.29Z" />
					</g>
				</g>
			</g>
		</g>
	</g>
</svg>