<svg width="40" height="31" viewBox="0 0 40 31" fill="none" xmlns="http://www.w3.org/2000/svg">
<path fill-rule="evenodd" clip-rule="evenodd" d="M19.9994 0C20.9032 0 21.6557 0.640529 21.8256 1.48798C25.4933 1.84021 28.9125 3.24566 31.7656 5.56249C32.0949 5.26838 32.531 5.08587 33.0081 5.08587C34.0372 5.08587 34.873 5.91356 34.873 6.93423C34.873 7.40736 34.6901 7.8398 34.3924 8.16646C36.7308 10.9971 38.1445 14.3881 38.5008 18.0243C39.3541 18.1929 40 18.9392 40 19.8366C40 20.8538 39.1642 21.6815 38.1374 21.6815C37.1106 21.6815 36.0674 20.7864 36.3147 19.4565L31.1994 16.9932C30.8595 17.3989 30.3473 17.6558 29.7741 17.6558C29.236 17.6558 28.7519 17.428 28.4132 17.0653L21.8456 19.6042C21.9604 20.6655 21.2595 21.4246 20.453 21.6269V27.2789C21.2841 27.4823 21.903 28.2251 21.903 29.1121C21.903 30.1525 21.0497 31 19.9994 31C18.7053 31 18.0958 29.891 18.0958 29.1121C18.0958 28.2251 18.7147 27.4823 19.547 27.2789V21.6269C18.7393 21.4246 18.0161 20.6388 18.1544 19.6042L11.7415 17.1257C11.4051 17.5977 10.8507 17.9046 10.2248 17.9046C9.63634 17.9046 9.11121 17.6314 8.76894 17.2083L3.69231 19.5019C3.89861 20.8096 2.88821 21.6815 1.86139 21.6815C0.834579 21.6815 0 20.8538 0 19.8366C0 18.9392 0.645861 18.1929 1.49802 18.0243C1.85553 14.3881 3.26916 10.9971 5.60645 8.16646C5.30872 7.8398 5.12703 7.40736 5.12703 6.93423C5.12703 5.91356 5.96278 5.08587 6.99077 5.08587C7.46901 5.08587 7.90388 5.26838 8.23443 5.56249C11.0875 3.24566 14.5055 1.84021 18.1732 1.48798C18.3432 0.640529 19.0969 0 19.9994 0ZM19.0406 1.84835C19.0406 2.3273 19.4274 2.79694 19.9994 2.79694C20.5281 2.79694 20.9582 2.37031 20.9582 1.84835C20.9582 1.32291 20.5281 0.896276 19.9994 0.896276C19.4719 0.896276 19.0406 1.32291 19.0406 1.84835ZM25.8344 9.39869L31.1807 7.28413C31.0963 6.81333 31.1889 6.50527 31.258 6.30765C28.5445 4.08149 25.2812 2.72952 21.7811 2.3831C21.7577 2.45866 21.6569 2.76323 21.4001 3.05966L25.8344 9.39869ZM14.2781 9.36847L18.6057 3.07594C18.4533 2.90389 18.315 2.67837 18.2177 2.3831C14.7188 2.72952 11.4555 4.08149 8.74081 6.30765C8.81114 6.50527 8.87326 6.85634 8.83341 7.18648L14.2781 9.36847ZM20.453 10.3171C20.9278 10.417 21.3369 10.6914 21.6076 11.0715L24.9717 9.74047L20.657 3.57464C20.5925 3.59789 20.5245 3.61998 20.453 3.63858V10.3171ZM18.5119 11.0645C18.7604 10.7204 19.125 10.4635 19.547 10.3473V3.63858C19.5012 3.62695 19.4344 3.60835 19.3559 3.58045L15.1373 9.71256L18.5119 11.0645ZM33.0081 7.88514C33.539 7.88514 33.9681 7.45734 33.9681 6.93423C33.9681 6.40994 33.539 5.98215 33.0081 5.98215C32.4818 5.98215 32.0516 6.40994 32.0516 6.93423C32.0516 7.45734 32.4818 7.88514 33.0081 7.88514ZM6.99077 7.88514C7.51824 7.88514 7.94842 7.45734 7.94842 6.93423C7.94842 6.40994 7.51824 5.98215 6.99077 5.98215C6.46095 5.98215 6.03194 6.40994 6.03194 6.93423C6.03194 7.45734 6.46095 7.88514 6.99077 7.88514ZM6.99546 8.77909C6.79385 8.77909 6.58051 8.74654 6.36015 8.66982C4.11311 11.3645 2.75106 14.5973 2.40293 18.0685C2.54945 18.1127 2.97026 18.2592 3.31722 18.6858L8.39619 16.391C8.37392 16.2829 8.3622 16.1725 8.3622 16.0586C8.3622 15.0391 9.19912 14.2125 10.2248 14.2125C10.3385 14.2125 10.5858 14.223 10.8694 14.3253L13.7565 10.1276L8.49348 8.01999C8.23209 8.39431 7.68 8.77909 6.99546 8.77909ZM29.1141 14.087C29.3955 13.9812 29.6475 13.9603 29.7741 13.9603C30.8009 13.9603 31.8476 14.8577 31.5968 16.1876L36.7121 18.6521C37.0297 18.2661 37.4506 18.1127 37.5971 18.0685C37.2489 14.5973 35.8869 11.3645 33.6399 8.66982C33.4429 8.73957 32.3985 9.06506 31.5663 8.09671L26.3643 10.1555L29.1141 14.087ZM11.6161 14.8333C11.656 14.8786 11.6947 14.9263 11.7322 14.9786L18.1755 12.4293C18.1369 12.2014 18.1615 11.9841 18.1755 11.8957L14.6169 10.4717L11.6161 14.8333ZM28.1412 14.9217C28.2116 14.7984 28.2889 14.6927 28.371 14.5985L25.5015 10.4972L21.9429 11.9062C21.9546 11.9899 21.9792 12.2282 21.9405 12.4374L28.1412 14.9217ZM20.0592 13.157C20.6171 13.157 21.059 12.699 21.059 12.1642C21.059 11.5481 20.5351 11.1738 20.0592 11.1738C19.5188 11.1738 19.0582 11.6121 19.0582 12.1642C19.0582 12.7222 19.527 13.157 20.0592 13.157ZM18.4826 18.7683C18.8659 18.2336 19.3688 18.0918 19.547 18.0476V13.98C19.125 13.8638 18.7604 13.6057 18.5119 13.2616L12.0697 15.811C12.1049 16.0411 12.0815 16.2143 12.0721 16.2899L18.4826 18.7683ZM20.453 18.0476C20.6312 18.0918 21.1141 18.2196 21.5174 18.7683L27.9748 16.2736C27.9056 16.0539 27.9103 15.7959 27.9103 15.7959L21.5994 13.2674C21.3286 13.6406 20.9207 13.9115 20.453 14.0091V18.0476ZM29.7741 16.7607C30.3027 16.7607 30.7317 16.3329 30.7317 15.8098C30.7317 15.2844 30.3027 14.8577 29.7741 14.8577C29.2443 14.8577 28.8152 15.2844 28.8152 15.8098C28.8152 16.3329 29.2443 16.7607 29.7741 16.7607ZM10.2248 17.0095C10.7558 17.0095 11.1848 16.5817 11.1848 16.0586C11.1848 15.5331 10.7558 15.1065 10.2248 15.1065C9.69729 15.1065 9.26711 15.5331 9.26711 16.0586C9.26711 16.5817 9.69729 17.0095 10.2248 17.0095ZM38.1374 20.7864C38.6661 20.7864 39.0963 20.3609 39.0963 19.8366C39.0963 19.3124 38.6661 18.8857 38.1374 18.8857C37.6088 18.8857 37.1786 19.3124 37.1786 19.8366C37.1786 20.3609 37.6088 20.7864 38.1374 20.7864ZM19.9994 20.7864C20.5281 20.7864 20.9582 20.3609 20.9582 19.8366C20.9582 19.3124 20.5281 18.8857 19.9994 18.8857C19.4719 18.8857 19.0406 19.3124 19.0406 19.8366C19.0406 20.3609 19.4719 20.7864 19.9994 20.7864ZM1.86139 20.7864C2.39004 20.7864 2.82139 20.3609 2.82139 19.8366C2.82139 19.3124 2.39004 18.8857 1.86139 18.8857C1.33392 18.8857 0.902564 19.3124 0.902564 19.8366C0.902564 20.3609 1.33392 20.7864 1.86139 20.7864ZM19.9994 30.1037C20.5515 30.1037 21.0004 29.6585 21.0004 29.1121C21.0004 28.5646 20.5515 28.1217 19.9994 28.1217C19.4485 28.1217 18.9996 28.5646 18.9996 29.1121C18.9996 29.6585 19.4485 30.1037 19.9994 30.1037Z" fill="#2B28B7"/>
</svg>
