<svg xmlns="http://www.w3.org/2000/svg" viewBox="0 0 347.25 270.67" width="341.25" height="266.67">
	<defs>
		<linearGradient id="grd1" gradientUnits="userSpaceOnUse"  x1="465.715" y1="208.626" x2="555.459" y2="53.186">
			<stop offset="0" stop-color="#2B28B7"  />
			<stop offset="0.485" stop-color="#2B28B7"  />
			<stop offset="1" stop-color="#0A0842"  />
			<stop offset="1" stop-color="#0A0842"  />
		</linearGradient>
		<clipPath clipPathUnits="userSpaceOnUse" id="cp1">
			<path d="M-119 -533L1214.33 -533L1214.33 800.33L-119 800.33L-119 -533Z" />
		</clipPath>
		<linearGradient id="grd2" gradientUnits="userSpaceOnUse"  x1="116.601" y1="247.315" x2="246.979" y2="21.494">
			<stop offset="0" stop-color="#2B28B7"  />
			<stop offset="0.485" stop-color="#2B28B7"  />
			<stop offset="1" stop-color="#0A0842"  />
			<stop offset="1" stop-color="#0A0842"  />
		</linearGradient>
	</defs>
	<style>
		tspan { white-space:pre }
		.shp0 { fill: url(#grd1) }
		.shp1 { fill: #1b1d1d }
		.shp2 {
			stroke: url(#grd2);
			fill: none;
		}
		.path {
		  transform: translate(-8px,-8px);
			stroke-dasharray: 1300;
			stroke-dashoffset: 1300;
			animation: dash 4s ease-out infinite;
		}
		.path2 {
		  transform: translate(-8px,-8px);
			stroke-dasharray: 350;
			stroke-dashoffset: 350;
			animation: dash2 4s ease-out infinite;
		}
		@keyframes dash {
			from {
				stroke-dashoffset: 1300;
			}
			to {
				stroke-dashoffset: 0;
			}
		}
		@keyframes dash2 {
			from {
				stroke-dashoffset: 350;
			}
			to {
				stroke-dashoffset: 0;
			}
		}
	</style>
	<g id="g10">
		<g id="g66">
			<g id="g68">
				<g id="g74">
					<g id="g76">
						<path
							class="path shp2"
							stroke-width="4"
                  			d="M180.85 10.33C188.56 10.33 194.98 15.84 196.43 23.13C227.72 26.16 256.89 38.25 281.23 58.18C284.04 55.65 287.76 54.08 291.83 54.08C300.61 54.08 307.74 61.2 307.74 69.98C307.74 74.05 306.18 77.77 303.64 80.58C323.59 104.93 335.65 134.1 338.69 165.38C345.97 166.83 351.48 173.25 351.48 180.97C351.48 189.72 344.35 196.84 335.59 196.84C326.83 196.84 317.93 189.14 320.04 177.7L276.4 156.51C273.5 160 269.13 162.21 264.24 162.21C259.65 162.21 255.52 160.25 252.63 157.13L196.6 178.97C197.58 188.1 191.6 194.63 184.72 196.37L184.72 244.99C191.81 246.74 197.09 253.13 197.09 260.76C197.09 269.71 189.81 277 180.85 277C169.81 277 164.61 267.46 164.61 260.76C164.61 253.13 169.89 246.74 176.99 244.99L176.99 196.37C170.1 194.63 163.93 187.87 165.11 178.97L110.4 157.65C107.53 161.71 102.8 164.35 97.46 164.35C92.44 164.35 87.96 162 85.04 158.36L41.73 178.09C43.49 189.34 34.87 196.84 26.11 196.84C17.35 196.84 10.23 189.72 10.23 180.97C10.23 173.25 15.74 166.83 23.01 165.38C26.06 134.1 38.12 104.93 58.06 80.58C55.52 77.77 53.97 74.05 53.97 69.98C53.97 61.2 61.1 54.08 69.87 54.08C73.95 54.08 77.66 55.65 80.48 58.18C104.82 38.25 133.98 26.16 165.27 23.13C166.72 15.84 173.15 10.33 180.85 10.33Z"
						/>
						<path
							class="path2 shp2"
							stroke-width="4"
							d="M172.67 26.23C172.67 30.35 175.97 34.39 180.85 34.39C185.36 34.39 189.03 30.72 189.03 26.23C189.03 21.71 185.36 18.04 180.85 18.04C176.35 18.04 172.67 21.71 172.67 26.23ZM230.63 91.18L276.24 72.99C275.52 68.94 276.31 66.29 276.9 64.59C253.75 45.44 225.91 33.81 196.05 30.83C195.85 31.48 194.99 34.1 192.8 36.65L230.63 91.18ZM132.04 90.92L168.96 36.79C167.66 35.31 166.48 33.37 165.65 30.83C135.8 33.81 107.96 45.44 84.8 64.59C85.4 66.29 85.93 69.31 85.59 72.15L132.04 90.92ZM184.72 99.08C188.77 99.94 192.26 102.3 194.57 105.57L223.27 94.12L186.46 41.08C185.91 41.28 185.33 41.47 184.72 41.63C184.72 41.63 184.72 99.08 184.72 99.08ZM168.16 105.51C170.28 102.55 173.39 100.34 176.99 99.34L176.99 41.63C176.6 41.53 176.03 41.37 175.36 41.13L139.37 93.88L168.16 105.51ZM291.83 78.16C296.36 78.16 300.02 74.48 300.02 69.98C300.02 65.47 296.36 61.79 291.83 61.79C287.34 61.79 283.67 65.47 283.67 69.98C283.67 74.48 287.34 78.16 291.83 78.16ZM69.87 78.16C74.37 78.16 78.04 74.48 78.04 69.98C78.04 65.47 74.37 61.79 69.87 61.79C65.35 61.79 61.69 65.47 61.69 69.98C61.69 74.48 65.35 78.16 69.87 78.16ZM69.91 85.85C68.19 85.85 66.37 85.57 64.49 84.91C45.32 108.09 33.7 135.9 30.73 165.76C31.98 166.14 35.57 167.4 38.53 171.07L81.86 151.33C81.67 150.4 81.57 149.45 81.57 148.47C81.57 139.7 88.71 132.59 97.46 132.59C98.43 132.59 100.54 132.68 102.96 133.56L127.59 97.45L82.69 79.32C80.46 82.54 75.75 85.85 69.91 85.85ZM258.61 131.51C261.01 130.6 263.16 130.42 264.24 130.42C273 130.42 281.93 138.14 279.79 149.58L323.43 170.78C326.14 167.46 329.73 166.14 330.98 165.76C328.01 135.9 316.39 108.09 297.22 84.91C295.54 85.51 286.63 88.31 279.53 79.98L235.15 97.69L258.61 131.51ZM109.33 137.93C109.67 138.32 110 138.73 110.32 139.18L165.29 117.25C164.96 115.29 165.17 113.42 165.29 112.66L134.93 100.41C134.93 100.41 109.33 137.93 109.33 137.93ZM250.31 138.69C250.91 137.63 251.57 136.72 252.27 135.91L227.79 100.63L197.43 112.75C197.53 113.47 197.74 115.52 197.41 117.32L250.31 138.69ZM181.36 123.51C186.12 123.51 189.89 119.57 189.89 114.97C189.89 109.67 185.42 106.45 181.36 106.45C176.75 106.45 172.82 110.22 172.82 114.97C172.82 119.77 176.82 123.51 181.36 123.51ZM167.91 171.78C171.18 167.18 175.47 165.96 176.99 165.58L176.99 130.59C173.39 129.59 170.28 127.37 168.16 124.41L113.2 146.34C113.5 148.32 113.3 149.81 113.22 150.46L167.91 171.78ZM184.72 165.58C186.24 165.96 190.36 167.06 193.8 171.78L248.89 150.32C248.3 148.43 248.34 146.21 248.34 146.21L194.5 124.46C192.19 127.67 188.71 130 184.72 130.84C184.72 130.84 184.72 165.58 184.72 165.58ZM264.24 154.51C268.75 154.51 272.41 150.83 272.41 146.33C272.41 141.81 268.75 138.14 264.24 138.14C259.72 138.14 256.06 141.81 256.06 146.33C256.06 150.83 259.72 154.51 264.24 154.51ZM97.46 156.65C101.99 156.65 105.65 152.97 105.65 148.47C105.65 143.95 101.99 140.28 97.46 140.28C92.96 140.28 89.29 143.95 89.29 148.47C89.29 152.97 92.96 156.65 97.46 156.65ZM335.59 189.14C340.1 189.14 343.77 185.48 343.77 180.97C343.77 176.46 340.1 172.79 335.59 172.79C331.08 172.79 327.41 176.46 327.41 180.97C327.41 185.48 331.08 189.14 335.59 189.14ZM180.85 189.14C185.36 189.14 189.03 185.48 189.03 180.97C189.03 176.46 185.36 172.79 180.85 172.79C176.35 172.79 172.67 176.46 172.67 180.97C172.67 185.48 176.35 189.14 180.85 189.14ZM26.11 189.14C30.62 189.14 34.3 185.48 34.3 180.97C34.3 176.46 30.62 172.79 26.11 172.79C21.61 172.79 17.93 176.46 17.93 180.97C17.93 185.48 21.61 189.14 26.11 189.14ZM180.85 269.29C185.56 269.29 189.39 265.46 189.39 260.76C189.39 256.05 185.56 252.24 180.85 252.24C176.15 252.24 172.32 256.05 172.32 260.76C172.32 265.46 176.15 269.29 180.85 269.29Z"
						/>
					</g>
				</g>
			</g>
		</g>
	</g>
</svg>
