<svg width="14" height="14" viewBox="0 0 14 14" fill="none" xmlns="http://www.w3.org/2000/svg">
<path d="M0 0V14H14V0H0ZM11.625 3.34375L10.875 4.0625C10.8125 4.09375 10.7812 4.1875 10.7812 4.25V9.5625C10.7812 9.625 10.8125 9.71875 10.875 9.75L11.5938 10.4688V10.625H7.90625V10.4688L8.6875 9.75C8.75 9.65625 8.75 9.65625 8.75 9.53125V5.25L6.625 10.625H6.34375L3.90625 5.25V8.84375C3.875 9 3.9375 9.15625 4.03125 9.25L5.03125 10.4688V10.625H2.21875V10.4688L3.1875 9.25C3.3125 9.15625 3.34375 9 3.3125 8.84375V4.6875C3.34375 4.59375 3.28125 4.46875 3.21875 4.375L2.34375 3.34375V3.15625H5.0625L7.15625 7.78125L9.03125 3.1875H11.625V3.34375Z" fill="#8C9FB1"/>
</svg>
