<svg width="19" height="19" viewBox="0 0 19 19" fill="none" xmlns="http://www.w3.org/2000/svg">
<mask id="mask0" style="mask-type:alpha" maskUnits="userSpaceOnUse" x="0" y="0" width="19" height="19">
<path fill-rule="evenodd" clip-rule="evenodd" d="M0 7.34091C0 3.29093 3.36746 0 7.51163 0C11.6558 0 15.0233 3.29093 15.0233 7.34091C15.0233 9.16433 14.3432 10.8326 13.2144 12.1179L18.3237 17.1231C18.6721 17.4644 18.6717 18.0254 18.3229 18.3662C17.9853 18.6962 17.4461 18.6965 17.1081 18.3669L11.9026 13.2919C10.6668 14.1657 9.15134 14.6818 7.51163 14.6818C3.36746 14.6818 0 11.3909 0 7.34091ZM7.5 13.7C11.0899 13.7 14 10.857 14 7.35C14 3.84299 11.0899 1 7.5 1C3.91015 1 1 3.84299 1 7.35C1 10.857 3.91015 13.7 7.5 13.7Z" fill="black"/>
</mask>
<g mask="url(#mask0)">
<rect x="-3" y="-2" width="24" height="24" fill="#8C9FB1"/>
</g>
</svg>
