<svg width="50" height="50" viewBox="0 0 50 50" fill="none" xmlns="http://www.w3.org/2000/svg">
<mask id="mask0" mask-type="alpha" maskUnits="userSpaceOnUse" x="16" y="16" width="19" height="19">
<path fill-rule="evenodd" clip-rule="evenodd" d="M16 23.3409C16 19.2909 19.3675 16 23.5116 16C27.6558 16 31.0233 19.2909 31.0233 23.3409C31.0233 25.1643 30.3432 26.8326 29.2144 28.1179L34.3237 33.1231C34.6721 33.4644 34.6717 34.0254 34.3229 34.3662C33.9853 34.6962 33.4461 34.6965 33.1081 34.3669L27.9026 29.2919C26.6668 30.1657 25.1513 30.6818 23.5116 30.6818C19.3675 30.6818 16 27.3909 16 23.3409ZM23.5 29.7C27.0899 29.7 30 26.857 30 23.35C30 19.843 27.0899 17 23.5 17C19.9101 17 17 19.843 17 23.35C17 26.857 19.9101 29.7 23.5 29.7Z" fill="black"/>
</mask>
<g mask="url(#mask0)">
<rect width="50" height="50" fill="black"/>
</g>
</svg>
