<svg width="24" height="24" viewBox="0 0 24 24" fill="none" xmlns="http://www.w3.org/2000/svg">
<ellipse cx="12.2424" cy="7.60606" rx="7.72727" ry="3.60606" stroke="#2B28B7" stroke-width="1.0303"/>
<mask id="path-2-inside-1" fill="white">
<path fill-rule="evenodd" clip-rule="evenodd" d="M5.0303 12.2424V7.60608H4V12.2424V16.8788C4 18.1936 5.12167 19.224 6.56057 19.8955C8.04129 20.5865 10.0507 21 12.2424 21C14.4342 21 16.4436 20.5865 17.9243 19.8955C19.3632 19.224 20.4848 18.1936 20.4848 16.8788V12.2424V7.60608H19.4545V12.2424C19.4545 12.9192 18.8464 13.6918 17.4886 14.3255C16.1726 14.9396 14.3183 15.3334 12.2424 15.3334C10.1665 15.3334 8.31226 14.9396 6.99627 14.3255C5.63844 13.6918 5.0303 12.9192 5.0303 12.2424ZM5.0303 14.2793V16.8788C5.0303 17.5556 5.63844 18.3282 6.99627 18.9619C8.31226 19.576 10.1665 19.9697 12.2424 19.9697C14.3183 19.9697 16.1726 19.576 17.4886 18.9619C18.8464 18.3282 19.4545 17.5556 19.4545 16.8788V14.2793C19.0307 14.6607 18.5032 14.989 17.9243 15.2591C16.4436 15.9501 14.4342 16.3637 12.2424 16.3637C10.0507 16.3637 8.04129 15.9501 6.56057 15.2591C5.98167 14.989 5.45412 14.6607 5.0303 14.2793Z"/>
</mask>
<path d="M5.0303 7.60608H7.60606V5.03032H5.0303V7.60608ZM4 7.60608V5.03032H1.42424V7.60608H4ZM6.56057 19.8955L5.47132 22.2296L5.47132 22.2296L6.56057 19.8955ZM17.9243 19.8955L19.0135 22.2296L17.9243 19.8955ZM20.4848 7.60608H23.0606V5.03032H20.4848V7.60608ZM19.4545 7.60608V5.03032H16.8788V7.60608H19.4545ZM17.4886 14.3255L18.5778 16.6596V16.6596L17.4886 14.3255ZM6.99627 14.3255L5.90702 16.6596H5.90702L6.99627 14.3255ZM5.0303 14.2793L6.75352 12.3648L2.45455 8.49524V14.2793H5.0303ZM6.99627 18.9619L5.90702 21.296H5.90702L6.99627 18.9619ZM17.4886 18.9619L18.5778 21.296L17.4886 18.9619ZM19.4545 14.2793H22.0303V8.49523L17.7313 12.3648L19.4545 14.2793ZM17.9243 15.2591L16.835 12.925L16.835 12.925L17.9243 15.2591ZM6.56057 15.2591L7.64982 12.925L7.64982 12.925L6.56057 15.2591ZM2.45455 7.60608V12.2424H7.60606V7.60608H2.45455ZM4 10.1818H5.0303V5.03032H4V10.1818ZM6.57576 12.2424V7.60608H1.42424V12.2424H6.57576ZM6.57576 16.8788V12.2424H1.42424V16.8788H6.57576ZM7.64982 17.5614C7.12997 17.3188 6.80733 17.0724 6.64588 16.895C6.50464 16.7397 6.57576 16.7456 6.57576 16.8788H1.42424C1.42424 19.7944 3.83861 21.4677 5.47132 22.2296L7.64982 17.5614ZM12.2424 18.4243C10.3402 18.4243 8.71869 18.0602 7.64982 17.5614L5.47132 22.2296C7.3639 23.1128 9.76113 23.5758 12.2424 23.5758V18.4243ZM16.835 17.5614C15.7662 18.0602 14.1446 18.4243 12.2424 18.4243V23.5758C14.7237 23.5758 17.121 23.1128 19.0135 22.2296L16.835 17.5614ZM17.9091 16.8788C17.9091 16.7456 17.9802 16.7397 17.839 16.895C17.6775 17.0724 17.3549 17.3188 16.835 17.5614L19.0135 22.2296C20.6462 21.4677 23.0606 19.7944 23.0606 16.8788H17.9091ZM17.9091 12.2424V16.8788H23.0606V12.2424H17.9091ZM17.9091 7.60608V12.2424H23.0606V7.60608H17.9091ZM19.4545 10.1818H20.4848V5.03032H19.4545V10.1818ZM22.0303 12.2424V7.60608H16.8788V12.2424H22.0303ZM18.5778 16.6596C20.1509 15.9255 22.0303 14.5063 22.0303 12.2424H16.8788C16.8788 11.7773 17.0892 11.5515 17.0675 11.5756C17.0597 11.5842 17.0123 11.6338 16.8998 11.7119C16.7883 11.7893 16.6257 11.8857 16.3993 11.9914L18.5778 16.6596ZM12.2424 17.9091C14.608 17.9091 16.85 17.4659 18.5778 16.6596L16.3993 11.9914C15.4951 12.4133 14.0287 12.7576 12.2424 12.7576V17.9091ZM5.90702 16.6596C7.6348 17.4659 9.87688 17.9091 12.2424 17.9091V12.7576C10.4562 12.7576 8.98973 12.4133 8.08552 11.9914L5.90702 16.6596ZM2.45455 12.2424C2.45455 14.5063 4.33395 15.9255 5.90702 16.6596L8.08552 11.9914C7.85914 11.8857 7.69651 11.7893 7.58502 11.7119C7.47254 11.6338 7.4251 11.5842 7.41732 11.5756C7.39561 11.5515 7.60606 11.7773 7.60606 12.2424H2.45455ZM2.45455 14.2793V16.8788H7.60606V14.2793H2.45455ZM2.45455 16.8788C2.45455 19.1427 4.33395 20.5619 5.90702 21.296L8.08552 16.6277C7.85914 16.5221 7.69651 16.4257 7.58502 16.3483C7.47255 16.2702 7.4251 16.2206 7.41732 16.2119C7.39561 16.1878 7.60606 16.4137 7.60606 16.8788H2.45455ZM5.90702 21.296C7.6348 22.1023 9.87688 22.5455 12.2424 22.5455V17.394C10.4561 17.394 8.98973 17.0497 8.08552 16.6277L5.90702 21.296ZM12.2424 22.5455C14.608 22.5455 16.85 22.1023 18.5778 21.296L16.3993 16.6277C15.4951 17.0497 14.0287 17.394 12.2424 17.394V22.5455ZM18.5778 21.296C20.1509 20.5619 22.0303 19.1427 22.0303 16.8788H16.8788C16.8788 16.4137 17.0892 16.1878 17.0675 16.2119C17.0597 16.2206 17.0123 16.2702 16.8998 16.3483C16.7883 16.4257 16.6257 16.5221 16.3993 16.6277L18.5778 21.296ZM22.0303 16.8788V14.2793H16.8788V16.8788H22.0303ZM17.7313 12.3648C17.5417 12.5355 17.2448 12.7338 16.835 12.925L19.0135 17.5932C19.7615 17.2442 20.5197 16.786 21.1778 16.1937L17.7313 12.3648ZM16.835 12.925C15.7662 13.4238 14.1446 13.7879 12.2424 13.7879V18.9394C14.7237 18.9394 17.121 18.4764 19.0135 17.5932L16.835 12.925ZM12.2424 13.7879C10.3402 13.7879 8.71869 13.4238 7.64982 12.925L5.47132 17.5932C7.3639 18.4764 9.76113 18.9394 12.2424 18.9394V13.7879ZM7.64982 12.925C7.24 12.7338 6.94314 12.5355 6.75352 12.3648L3.30709 16.1937C3.9651 16.786 4.72334 17.2442 5.47132 17.5932L7.64982 12.925Z" fill="#2B28B7" mask="url(#path-2-inside-1)"/>
</svg>
