<svg width="40" height="40" viewBox="0 0 40 40" fill="none" xmlns="http://www.w3.org/2000/svg">
<circle cx="17" cy="23" r="11" stroke="#0E0B93" stroke-width="2"/>
<path d="M16.5 15V31.5M21.5 18H14.5C14.5 18 12.5 18.5 12.5 21C12.5 23.5 15 23.5 15 23.5H20.5C20.5 23.5 22.5 24 22.5 26.5C22.5 29 20 29 20 29H13" stroke="#0E0B93" stroke-width="2" stroke-linecap="round" stroke-linejoin="round"/>
<path fill-rule="evenodd" clip-rule="evenodd" d="M28.956 24.0335C31.4099 22.2112 32.9999 19.2913 32.9999 16C32.9999 10.4772 28.5228 6 22.9999 6C19.1596 6 15.8249 8.16476 14.1495 11.3406C13.2508 11.5595 12.3917 11.8797 11.585 12.2883C13.1482 7.47755 17.6679 4 22.9999 4C29.6273 4 34.9999 9.37258 34.9999 16C34.9999 20.6791 32.3218 24.7327 28.4149 26.7117C28.6926 25.857 28.877 24.9603 28.956 24.0335Z" fill="#0E0B93"/>
</svg>
