<svg width="34" height="34" viewBox="0 0 34 34" fill="none" xmlns="http://www.w3.org/2000/svg">
<path d="M20.3334 0.333376C23.3834 0.33192 26.3417 1.37615 28.7149 3.29192C31.0881 5.20768 32.7327 7.87917 33.3746 10.8608C34.0164 13.8425 33.6166 16.9541 32.2419 19.6766C30.8671 22.3992 28.6005 24.5681 25.8201 25.8217C24.9314 27.7866 23.5793 29.5065 21.8799 30.8341C20.1804 32.1617 18.1844 33.0572 16.0628 33.4439C13.9413 33.8307 11.7576 33.697 9.69904 33.0545C7.64049 32.412 5.7685 31.2797 4.24362 29.7549C2.71875 28.23 1.58649 26.358 0.943961 24.2994C0.301431 22.2409 0.167803 20.0572 0.554535 17.9356C0.941268 15.8141 1.83682 13.818 3.16439 12.1186C4.49196 10.4192 6.21192 9.06711 8.17677 8.17837C9.23367 5.83986 10.9427 3.85588 13.099 2.46439C15.2553 1.0729 17.7672 0.332979 20.3334 0.333376ZM13.6668 10.3334C12.3536 10.3334 11.0532 10.592 9.83994 11.0946C8.62668 11.5971 7.52429 12.3337 6.5957 13.2623C5.66712 14.1909 4.93052 15.2933 4.42797 16.5065C3.92543 17.7198 3.66677 19.0202 3.66677 20.3334C3.66677 21.6466 3.92543 22.947 4.42797 24.1602C4.93052 25.3735 5.66712 26.4759 6.5957 27.4044C7.52429 28.333 8.62668 29.0696 9.83994 29.5722C11.0532 30.0747 12.3536 30.3334 13.6668 30.3334C16.3189 30.3334 18.8625 29.2798 20.7378 27.4044C22.6132 25.5291 23.6668 22.9855 23.6668 20.3334C23.6668 17.6812 22.6132 15.1377 20.7378 13.2623C18.8625 11.3869 16.3189 10.3334 13.6668 10.3334ZM15.3334 12V13.6667H18.6668V17H12.0001C11.7919 16.9997 11.591 17.0773 11.4371 17.2176C11.2832 17.3579 11.1875 17.5507 11.1686 17.7581C11.1498 17.9655 11.2093 18.1724 11.3355 18.3381C11.4616 18.5038 11.6452 18.6163 11.8501 18.6534L12.0001 18.6667H15.3334C16.4385 18.6667 17.4983 19.1057 18.2797 19.8871C19.0611 20.6685 19.5001 21.7283 19.5001 22.8334C19.5001 23.9384 19.0611 24.9982 18.2797 25.7797C17.4983 26.5611 16.4385 27 15.3334 27V28.6667H12.0001V27H8.66677V23.6667H15.3334C15.5417 23.6671 15.7425 23.5895 15.8964 23.4492C16.0503 23.3089 16.1461 23.1161 16.1649 22.9087C16.1837 22.7013 16.1242 22.4944 15.9981 22.3287C15.8719 22.163 15.6883 22.0505 15.4834 22.0134L15.3334 22H12.0001C10.895 22 9.83523 21.5611 9.05383 20.7797C8.27242 19.9983 7.83344 18.9384 7.83344 17.8334C7.83344 16.7283 8.27242 15.6685 9.05383 14.8871C9.83523 14.1057 10.895 13.6667 12.0001 13.6667V12H15.3334ZM20.3334 3.66671C18.9212 3.66506 17.5248 3.96328 16.2365 4.54164C14.9481 5.12001 13.7973 5.96534 12.8601 7.02171C14.7439 6.90735 16.6305 7.1942 18.3951 7.86329C20.1598 8.53237 21.7623 9.56845 23.0967 10.903C24.4311 12.2376 25.467 13.8402 26.1358 15.6049C26.8047 17.3697 27.0913 19.2563 26.9768 21.14C28.4921 19.7927 29.5621 18.0166 30.0448 16.0472C30.5275 14.0778 30.4001 12.0082 29.6795 10.1129C28.9589 8.21759 27.6792 6.58611 26.01 5.43485C24.3408 4.28358 22.3611 3.66694 20.3334 3.66671Z" fill="#0E0B93"/>
</svg>
