<svg xmlns="http://www.w3.org/2000/svg" viewBox="0 0 718 72" width="718" height="72">
	<defs>
		<linearGradient id="grd1" gradientUnits="userSpaceOnUse"  x1="87.715" y1="110.626" x2="177.459" y2="-44.814">
			<stop offset="0" stop-color="#0054a6"  />
			<stop offset="0.485" stop-color="#0054a6"  />
			<stop offset="1" stop-color="#008fd4"  />
			<stop offset="1" stop-color="#008fd4"  />
		</linearGradient>
		<clipPath clipPathUnits="userSpaceOnUse" id="cp1">
			<path d="M-497 -631L836.33 -631L836.33 702.33L-497 702.33L-497 -631Z" />
		</clipPath>
	</defs>
	<style>
		tspan { white-space:pre }
		.shp0 { fill: url(#grd1) } 
		.shp1 { fill: #1b1d1d } 
	</style>
	<g id="g10">
		<g id="g12">
			<g id="g14">
				<g id="g20">
					<g id="g22">
						<path id="path34" fill-rule="evenodd" class="shp0" d="M247.33 0.11C260.55 0.11 268.96 7.12 268.96 17.14C268.96 24.15 264.85 31.36 254.94 33.26C265.56 35.17 270.77 42.98 270.77 50.88C270.77 61.9 260.95 70.22 247.82 70.22L216.08 70.22L216.08 0.11L247.33 0.11ZM226.69 29.36L245.02 29.36C253.83 29.36 258.14 24.35 258.14 18.74C258.14 13.04 253.54 9.23 246.13 9.23L226.69 9.23L226.69 29.36ZM226.69 61.1L246.62 61.1C254.34 61.1 259.95 56 259.95 49.59C259.95 44.47 256.34 37.86 245.22 37.86L226.69 37.86L226.69 61.1ZM175.84 0.11L175.84 70.22L165.23 70.22L165.23 10.03L139.68 70.22L132.37 70.22L106.83 9.82L106.83 70.22L96.22 70.22L96.22 0.11L113.14 0.11L136.07 54.2L158.91 0.11L175.84 0.11ZM56.6 0.11L56.6 43.18C56.6 60.3 45.58 71.22 28.46 71.22C11.24 71.22 0.22 60.3 0.22 43.18L0.22 0.11L11.04 0.11L11.04 43.07C11.04 54.29 17.65 61.41 28.46 61.41C39.28 61.41 45.78 54.29 45.78 43.07L45.78 0.11L56.6 0.11Z" />
					</g>
				</g>
			</g>
		</g>
		<g id="g36">
			<g id="Clip-Path: Clip-Path: g38" clip-path="url(#cp1)">
				<g id="Clip-Path: g38">
					<g id="g38">
						<g id="g44">
							<path id="path46" fill-rule="evenodd" class="shp1" d="M364.82 70.22L351 70.22L332.06 41.98L318.35 41.98L318.35 70.22L307.53 70.22L307.53 0.11L338.47 0.11C352.6 0.11 362.51 9.12 362.51 20.84C362.51 31.45 354.8 39.77 343.28 41.58L364.82 70.22ZM338.07 32.96C346.28 32.96 351.89 27.65 351.89 20.94C351.89 14.43 346.28 9.42 338.07 9.42L318.35 9.42L318.35 32.96L338.07 32.96Z" />
						</g>
						<path id="path48" class="shp1" d="M448.24 9.53L399.47 9.53L399.47 0.11L448.24 0.11L448.24 9.53Z" />
						<g id="g50">
							<path id="path52" class="shp1" d="M410.09 60.81L410.09 38.17L446.95 38.17L446.95 29.05L399.47 29.05L399.47 70.22L448.24 70.22L448.24 60.81L410.09 60.81Z" />
						</g>
						<g id="g54">
							<path id="path56" class="shp1" d="M497.13 60.61L497.13 0.11L486.32 0.11L486.32 70.22L533.19 70.22L533.19 60.61L497.13 60.61Z" />
						</g>
						<g id="g58">
							<path id="path60" class="shp1" d="M578.5 60.61L578.5 0.11L567.69 0.11L567.69 70.22L614.56 70.22L614.56 60.61L578.5 60.61Z" />
						</g>
						<g id="g62">
							<path id="path64" class="shp1" d="M689.37 0.11L674.55 0.11L646.8 70.22L658.52 70.22L681.96 9.13L705.4 70.22L717.11 70.22L689.37 0.11Z" />
						</g>
					</g>
				</g>
			</g>
		</g>
	</g>
</svg>