<svg width="84" height="9" viewBox="0 0 84 9" fill="none" xmlns="http://www.w3.org/2000/svg">
<path fill-rule="evenodd" clip-rule="evenodd" d="M29.1635 0.560303C30.709 0.560303 31.6922 1.38039 31.6922 2.55262C31.6922 3.3727 31.2117 4.21619 30.0532 4.43847C31.2947 4.66192 31.9038 5.5756 31.9038 6.4998C31.9038 7.78902 30.7558 8.76236 29.2208 8.76236H25.5101V0.560303H29.1635ZM26.7505 3.98221H28.8934C29.9234 3.98221 30.4273 3.3961 30.4273 2.7398C30.4273 2.07296 29.8895 1.62724 29.0232 1.62724H26.7505V3.98221ZM26.7505 7.69543H29.0805C29.983 7.69543 30.6389 7.09878 30.6389 6.34889C30.6389 5.74991 30.2168 4.97661 28.9168 4.97661H26.7505V7.69543ZM20.8058 0.560303V8.76236H19.5654V1.72083L16.5784 8.76236H15.7238L12.7379 1.69626V8.76236H11.4976V0.560303H13.4756L16.1563 6.8882L18.8265 0.560303H20.8058ZM6.86567 0.560303V5.59899C6.86567 7.60183 5.57735 8.87935 3.57589 8.87935C1.56274 8.87935 0.274414 7.60183 0.274414 5.59899V0.560303H1.53936V5.58612C1.53936 6.89874 2.31211 7.73169 3.57589 7.73169C4.84083 7.73169 5.60073 6.89874 5.60073 5.58612V0.560303H6.86567Z" fill="#2B28B7"/>
<path fill-rule="evenodd" clip-rule="evenodd" d="M42.8988 8.76236H41.2832L39.0689 5.45861H37.4661V8.76236H36.2012V0.560303H39.8183C41.4702 0.560303 42.6288 1.61437 42.6288 2.98547C42.6288 4.22672 41.7274 5.20006 40.3806 5.41181L42.8988 8.76236ZM39.7715 4.40337C40.7314 4.40337 41.3872 3.78216 41.3872 2.99717C41.3872 2.23558 40.7314 1.64946 39.7715 1.64946H37.4661V4.40337H39.7715Z" fill="black"/>
<path d="M52.6513 1.66233H46.9497V0.560303H52.6513V1.66233Z" fill="black"/>
<path d="M48.1913 7.66147V5.01286H52.5005V3.94592H46.9497V8.76234H52.6513V7.66147H48.1913Z" fill="black"/>
<path d="M58.3668 7.6381V0.560303H57.103V8.76236H62.5825V7.6381H58.3668Z" fill="black"/>
<path d="M67.8797 7.6381V0.560303H66.616V8.76236H72.0954V7.6381H67.8797Z" fill="black"/>
<path d="M80.8413 0.560303H79.1087L75.8645 8.76236H77.2347L79.975 1.61554L82.7153 8.76236H84.0843L80.8413 0.560303Z" fill="black"/>
</svg>
