<svg width="93" height="73" viewBox="0 0 93 73" fill="none" xmlns="http://www.w3.org/2000/svg">
<path d="M88.8641 41.9469C88.0575 33.5262 84.7556 25.538 79.3813 19.0053C80.12 18.1886 80.5165 17.1192 80.4887 16.0184C80.461 14.9175 80.0112 13.8695 79.2324 13.091C78.4535 12.3125 77.4052 11.8632 76.3044 11.8359C75.2035 11.8087 74.1343 12.2057 73.3179 12.9448C66.7856 7.56992 58.7972 4.26796 50.3764 3.46201C50.1832 2.48629 49.6575 1.60782 48.8889 0.976467C48.1203 0.345114 47.1565 0 46.1618 0C45.1672 0 44.2033 0.345114 43.4347 0.976467C42.6662 1.60782 42.1404 2.48629 41.9473 3.46201C33.5264 4.26796 25.5381 7.56992 19.0058 12.9448C18.1894 12.2057 17.1202 11.8087 16.0193 11.8359C14.9185 11.8632 13.8702 12.3125 13.0913 13.091C12.3125 13.8695 11.8626 14.9175 11.8349 16.0184C11.8072 17.1192 12.2037 18.1886 12.9424 19.0053C7.56804 25.538 4.26616 33.5262 3.4596 41.9469C2.62868 42.1119 1.86509 42.519 1.26482 43.1168C0.664554 43.7146 0.254384 44.4764 0.0858698 45.3067C-0.0826442 46.1369 -0.00198606 46.9984 0.317712 47.783C0.63741 48.5675 1.18188 49.24 1.88268 49.716C2.58349 50.192 3.40935 50.4502 4.25648 50.4581C5.1036 50.4661 5.93418 50.2235 6.64382 49.7608C7.35346 49.2981 7.91049 48.6359 8.2449 47.8576C8.57931 47.0792 8.67617 46.2194 8.52332 45.3861L20.2412 40.0469C20.6554 40.5684 21.1854 40.9862 21.7891 41.2674C22.3928 41.5486 23.0537 41.6854 23.7194 41.6669C24.3852 41.6484 25.0375 41.4752 25.6247 41.161C26.2119 40.8468 26.7179 40.4002 27.1026 39.8566L41.9018 45.6247C41.7663 46.667 42.0191 47.7227 42.612 48.5906C43.2049 49.4585 44.0965 50.0778 45.1167 50.3305V63.4854C44.1622 63.72 43.3138 64.2676 42.7068 65.0408C42.0999 65.814 41.7695 66.7682 41.7684 67.7511C41.7684 69.563 43.1742 72.1446 46.1618 72.1446C47.2357 72.1446 48.2724 71.7513 49.076 71.0389C49.8795 70.3265 50.3943 69.3444 50.523 68.2783C50.6517 67.2122 50.3853 66.1358 49.7743 65.2527C49.1633 64.3696 48.25 63.7409 47.207 63.4854V50.3305C48.2264 50.0764 49.117 49.4568 49.7097 48.5892C50.3023 47.7217 50.5558 46.6667 50.4218 45.6247L65.5817 39.7146C65.995 40.1618 66.4989 40.5157 67.0599 40.7525C67.6208 40.9893 68.2259 41.1036 68.8346 41.0877C69.4433 41.0718 70.0416 40.9262 70.5895 40.6605C71.1373 40.3948 71.6222 40.0152 72.0115 39.5471L83.8174 45.281C83.6426 46.1149 83.7196 46.982 84.0386 47.772C84.3576 48.5621 84.9041 49.2395 85.6089 49.7183C86.3137 50.1972 87.1448 50.4557 87.9968 50.4613C88.8488 50.4668 89.6833 50.219 90.3941 49.7493C91.105 49.2796 91.6603 48.6093 91.9895 47.8234C92.3187 47.0376 92.4069 46.1716 92.2429 45.3355C92.0789 44.4994 91.6702 43.7309 91.0686 43.1275C90.467 42.5242 89.6997 42.1132 88.8641 41.9469ZM76.1863 13.9217C76.6247 13.9206 77.0535 14.0496 77.4186 14.2923C77.7836 14.535 78.0684 14.8806 78.2369 15.2853C78.4055 15.6899 78.4502 16.1355 78.3653 16.5656C78.2805 16.9957 78.07 17.3909 77.7604 17.7013C77.4508 18.0117 77.0561 18.2232 76.6263 18.3091C76.1964 18.3951 75.7507 18.3515 75.3456 18.1841C74.9405 18.0166 74.5942 17.7326 74.3505 17.3682C74.1069 17.0038 73.9768 16.5753 73.9768 16.1369C73.9768 15.5504 74.2094 14.9878 74.6236 14.5726C75.0378 14.1573 75.5998 13.9232 76.1863 13.9217ZM72.1478 14.68C71.8784 15.406 71.8164 16.1928 71.9689 16.952L59.6297 21.8735L49.3932 7.12078C49.788 6.65953 50.0873 6.12444 50.2736 5.54657C58.3141 6.33581 65.9334 9.51722 72.1478 14.68ZM44.6748 8.33205C44.8577 8.39709 45.0111 8.43911 45.1167 8.46609V24.0804C44.1534 24.3484 43.3107 24.9376 42.7283 25.7503L34.9404 22.6039L44.6748 8.33205ZM46.2982 26.0031C46.7545 26.0034 47.2006 26.139 47.5799 26.3928C47.9592 26.6466 48.2547 27.0071 48.4291 27.4289C48.6035 27.8506 48.6489 28.3146 48.5596 28.7622C48.4703 29.2097 48.2503 29.6207 47.9274 29.9432C47.6045 30.2658 47.1932 30.4853 46.7455 30.574C46.2978 30.6628 45.8339 30.6168 45.4124 30.4419C44.9908 30.267 44.6306 29.971 44.3773 29.5914C44.124 29.2118 43.989 28.7656 43.9892 28.3092C43.9912 27.6977 44.2352 27.1118 44.6678 26.6797C45.1005 26.2476 45.6866 26.0043 46.2982 26.0031ZM47.207 24.0094V8.46609C47.367 8.42539 47.5247 8.37571 47.6792 8.31728L57.6371 22.6681L49.8737 25.7637C49.2368 24.8646 48.2847 24.2383 47.207 24.0094ZM46.1618 2.08461C46.5993 2.08461 47.0269 2.21429 47.3907 2.45727C47.7544 2.70024 48.038 3.04559 48.2055 3.44968C48.373 3.85377 48.417 4.29846 48.3319 4.72754C48.2468 5.15662 48.0363 5.55083 47.7272 5.86034C47.4181 6.16986 47.0242 6.38079 46.5952 6.46648C46.1662 6.55216 45.7215 6.50876 45.3172 6.34174C44.9129 6.17473 44.5671 5.8916 44.3237 5.52815C44.0803 5.16471 43.95 4.73726 43.9495 4.29982C43.9501 3.71298 44.1833 3.15031 44.5979 2.7351C45.0126 2.31988 45.575 2.08596 46.1618 2.08461ZM42.0495 5.54657C42.2356 6.13918 42.5401 6.6878 42.9447 7.15913L32.9558 21.8025L20.3888 16.7248C20.4625 16.0358 20.3899 15.339 20.1758 14.68C26.3901 9.51732 34.0092 6.33592 42.0495 5.54657ZM16.1374 13.9217C16.5755 13.9217 17.0038 14.0517 17.368 14.2951C17.7323 14.5385 18.0163 14.8844 18.1839 15.2892C18.3516 15.694 18.3955 16.1394 18.31 16.5691C18.2245 16.9988 18.0135 17.3935 17.7037 17.7033C17.3939 18.0131 16.9992 18.2241 16.5695 18.3096C16.1398 18.395 15.6944 18.3512 15.2896 18.1835C14.8849 18.0158 14.5389 17.7319 14.2955 17.3676C14.0521 17.0033 13.9222 16.5751 13.9222 16.1369C13.9226 15.5496 14.1561 14.9864 14.5715 14.5711C14.9868 14.1557 15.55 13.9222 16.1374 13.9217ZM4.2974 48.3738C3.86023 48.3729 3.43314 48.2425 3.07008 47.999C2.70702 47.7555 2.42431 47.4098 2.25766 47.0057C2.09102 46.6015 2.04792 46.157 2.13383 45.7284C2.21973 45.2997 2.43078 44.9062 2.74029 44.5975C3.04981 44.2887 3.4439 44.0787 3.87276 43.9939C4.30161 43.9091 4.74598 43.9533 5.14971 44.121C5.55343 44.2887 5.89839 44.5723 6.14097 44.936C6.38355 45.2997 6.51288 45.7271 6.5126 46.1643C6.51177 46.751 6.27794 47.3134 5.86252 47.7277C5.44711 48.1421 4.88413 48.3745 4.2974 48.3738ZM19.3011 37.3716C19.3017 37.6321 19.3283 37.8918 19.3806 38.1469L7.65712 43.4861C7.11307 42.8071 6.37811 42.3066 5.54699 42.0491C6.33612 34.0087 9.51754 26.3895 14.6804 20.1754C15.5543 20.4894 16.5064 20.5119 17.3941 20.2395C18.2819 19.9671 19.0575 19.4146 19.605 18.6645L31.7525 23.5681L25.0896 33.3377C24.6119 33.166 24.1084 33.0772 23.6009 33.0753C22.4614 33.0762 21.3688 33.5291 20.5628 34.3345C19.7567 35.1399 19.303 36.2321 19.3011 37.3716ZM23.6009 39.584C23.1626 39.584 22.7342 39.454 22.3699 39.2104C22.0055 38.9669 21.7216 38.6208 21.554 38.2158C21.3864 37.8109 21.3427 37.3654 21.4284 36.9356C21.5142 36.5058 21.7254 36.1111 22.0355 35.8014C22.3456 35.4917 22.7406 35.2809 23.1705 35.1958C23.6003 35.1106 24.0458 35.1549 24.4506 35.323C24.8553 35.4911 25.2011 35.7755 25.4441 36.1401C25.6872 36.5048 25.8166 36.9334 25.8161 37.3716C25.8153 37.9586 25.5816 38.5213 25.1663 38.9362C24.7509 39.351 24.1879 39.584 23.6009 39.584ZM27.0799 34.8582C26.9947 34.7369 26.9035 34.6262 26.8121 34.5211L33.7365 24.369L41.9501 27.6844C41.8883 28.0958 41.8883 28.5141 41.9501 28.9255L27.0799 34.8582ZM42.6601 43.6793L27.8637 37.9112C27.9167 37.5409 27.9148 37.1648 27.858 36.7951L42.7283 30.8623C43.3105 31.6759 44.1532 32.266 45.1167 32.5351V42.0008C44.1206 42.2421 43.247 42.839 42.6601 43.6793ZM48.4708 67.7511C48.4713 68.2079 48.3364 68.6546 48.083 69.0346C47.8296 69.4147 47.4692 69.7111 47.0474 69.8863C46.6255 70.0615 46.1612 70.1076 45.7131 70.0188C45.265 69.9301 44.8534 69.7104 44.5302 69.3876C44.207 69.0648 43.9868 68.6534 43.8975 68.2054C43.8082 67.7575 43.8537 67.2931 44.0284 66.871C44.2031 66.449 44.499 66.0882 44.8788 65.8343C45.2585 65.5805 45.705 65.445 46.1618 65.445C46.7734 65.446 47.3597 65.6892 47.7924 66.1214C48.2251 66.5535 48.469 67.1395 48.4708 67.7511ZM46.1618 48.3738C45.7245 48.3735 45.2972 48.2435 44.9337 48.0004C44.5703 47.7572 44.2872 47.4117 44.1201 47.0076C43.953 46.6035 43.9095 46.1589 43.9951 45.7301C44.0807 45.3013 44.2915 44.9075 44.6009 44.5985C44.9103 44.2895 45.3044 44.0791 45.7333 43.9941C46.1622 43.9091 46.6068 43.9531 47.0107 44.1207C47.4145 44.2883 47.7597 44.5719 48.0024 44.9357C48.2451 45.2994 48.3745 45.727 48.3742 46.1643C48.3734 46.7505 48.1399 47.3124 47.7251 47.7267C47.3103 48.141 46.7481 48.3737 46.1618 48.3738ZM49.6636 43.6793C49.0793 42.8363 48.2046 42.2387 47.207 42.0008V32.6033C48.2735 32.3775 49.2175 31.7618 49.8538 30.8765L64.4202 36.761C64.418 37.1362 64.4677 37.5099 64.5679 37.8715L49.6636 43.6793ZM50.6405 28.9453C50.7024 28.535 50.7043 28.1179 50.6462 27.7071L58.8592 24.4297L65.4826 33.975C65.2814 34.2063 65.1043 34.4575 64.9541 34.7247L50.6405 28.9453ZM68.7228 39.0046C68.2843 39.0057 67.8554 38.8767 67.4903 38.6339C67.1252 38.391 66.8404 38.0453 66.6719 37.6404C66.5034 37.2356 66.4589 36.7899 66.544 36.3597C66.6291 35.9295 66.8399 35.5343 67.1497 35.224C67.4596 34.9138 67.8545 34.7025 68.2846 34.6169C68.7146 34.5312 69.1604 34.5752 69.5655 34.7431C69.9705 34.911 70.3167 35.1954 70.56 35.5602C70.8033 35.925 70.9329 36.3538 70.9323 36.7923C70.9315 37.3783 70.6986 37.9401 70.2845 38.3548C69.8704 38.7695 69.3088 39.0031 68.7228 39.0046ZM84.7347 43.4066L72.9288 37.6727C73.0624 37.0466 73.0541 36.3987 72.9045 35.7763C72.755 35.1539 72.468 34.5728 72.0647 34.0758C71.6613 33.5788 71.1518 33.1783 70.5736 32.9039C69.9953 32.6294 69.3629 32.4879 68.7228 32.4897C68.2019 32.4985 67.6865 32.5976 67.1994 32.7825L60.8517 23.6345L72.8578 18.8435C73.4176 19.536 74.1795 20.0365 75.0374 20.2753C75.8952 20.514 76.8062 20.4791 77.6432 20.1754C82.8061 26.3895 85.9875 34.0087 86.7767 42.0491C85.9801 42.2968 85.2714 42.768 84.7347 43.4066ZM88.0263 48.3738C87.589 48.3735 87.1616 48.2435 86.7982 48.0004C86.4348 47.7572 86.1516 47.4117 85.9845 47.0076C85.8174 46.6035 85.7739 46.1589 85.8595 45.7301C85.9451 45.3013 86.1559 44.9075 86.4653 44.5985C86.7747 44.2895 87.1688 44.0791 87.5978 43.9941C88.0267 43.9091 88.4712 43.9531 88.8751 44.1207C89.279 44.2883 89.6241 44.5719 89.8668 44.9357C90.1095 45.2994 90.2389 45.727 90.2386 46.1643C90.2377 46.7504 90.0042 47.3123 89.5894 47.7266C89.1746 48.1408 88.6125 48.3736 88.0263 48.3738Z" fill="#8C9FB1"/>
</svg>
