<svg width="190" height="34" viewBox="0 0 190 34" fill="none" xmlns="http://www.w3.org/2000/svg">
<path fill-rule="evenodd" clip-rule="evenodd" d="M44.0388 22.2524C43.8383 23.2548 42.9562 23.9764 41.9538 24.0165C40.9515 24.0566 40.1095 23.4552 39.7887 22.6132C39.5081 21.9316 38.9468 21.4104 38.3053 21.0896L35.3784 19.8467C34.7769 19.6062 34.0953 19.6462 33.4538 19.8868C33.1598 19.9937 32.8524 20.0472 32.5317 20.0472C32.0505 20.0071 31.6095 19.8467 31.2486 19.566L24.9538 22.092C24.5529 22.2524 24.2321 22.5731 24.0717 22.974C23.9113 23.3349 23.6307 23.6557 23.3099 23.8962C22.8689 24.217 22.5882 24.6982 22.5882 25.2595V28.7076C22.5882 29.2288 22.8689 29.7099 23.2698 30.0307C23.8312 30.4316 24.2321 31.0731 24.2321 31.8349C24.2321 32.9977 23.2297 34 22.0269 34C20.8241 34 19.8618 32.9977 19.8618 31.8349C19.8618 31.0731 20.2227 30.4316 20.784 30.0307C21.225 29.7099 21.5057 29.2288 21.5057 28.7076V25.2595C21.5057 24.6982 21.225 24.217 20.7439 23.8962C20.4231 23.6557 20.1826 23.3349 20.0222 22.974C19.8217 22.5731 19.501 22.2524 19.1 22.092L12.8052 19.566C12.4844 19.8467 12.0434 20.0071 11.5623 20.0472C11.2148 20.0472 10.894 19.9937 10.6 19.8868C9.99858 19.6462 9.31697 19.6062 8.71555 19.8467L5.78866 21.0896C5.10705 21.4104 4.54573 21.9316 4.30516 22.6132C3.94431 23.4552 3.10233 24.0566 2.09997 24.0165C1.1377 23.9764 0.255626 23.2548 0.0551533 22.2524C-0.145319 21.3703 0.215527 20.4882 0.897133 19.9669C1.49855 19.566 1.8995 18.9647 2.05988 18.243C2.54101 15.5566 3.62356 12.9906 5.14715 10.7052C5.66837 9.9434 5.82875 9.02123 5.70847 8.09906C5.68174 7.83176 5.6951 7.56446 5.74856 7.29717C5.94904 6.3349 6.79102 5.65328 7.71319 5.57309C7.95375 5.54636 8.18096 5.55976 8.3948 5.61322C9.15659 5.7736 9.91839 5.69335 10.5599 5.25231C13.0057 3.56835 15.7321 2.48585 18.659 2.00472C19.2604 1.88444 19.8217 1.56362 20.1826 1.0424C20.5835 0.400886 21.2651 0 22.0269 0C22.8288 0 23.5104 0.400886 23.9113 1.0424C24.2321 1.56362 24.8335 1.88444 25.4349 2.00472C28.3618 2.48585 31.0883 3.56835 33.534 5.25231C34.1354 5.69335 34.9373 5.7736 35.659 5.61322C35.8729 5.55976 36.1001 5.54636 36.3406 5.57309C37.3029 5.65328 38.1048 6.3349 38.3453 7.29717C38.3988 7.56446 38.4122 7.83176 38.3854 8.09906C38.2251 9.02123 38.4255 9.9434 38.9067 10.7052C40.4704 12.9906 41.5128 15.5566 42.034 18.243C42.1543 18.9647 42.5954 19.566 43.1968 19.9669C43.8383 20.4882 44.2392 21.3703 44.0388 22.2524ZM14.7297 16.1179L19.4609 14.1132C19.6613 14.033 19.7816 13.8326 19.7816 13.6321C19.8217 13.3915 19.6613 13.1509 19.4609 13.0707L10.7604 9.34192C10.2792 9.14145 9.71791 9.22164 9.31697 9.5424C9.12986 9.67604 8.92939 9.78298 8.71555 9.86317C8.52844 9.94336 8.3547 9.98347 8.19433 9.98347C7.31225 10.1038 6.51036 10.5448 6.02922 11.3066C4.50563 13.5118 3.50328 16.0377 3.06224 18.6839C2.94195 19.2052 3.18252 19.6863 3.58347 20.0071C3.58347 20.0338 3.59683 20.0472 3.62356 20.0472C4.0245 20.368 4.54573 20.4882 5.02686 20.2877C5.66837 20.0071 6.51035 19.6462 7.31224 19.2854C8.27451 18.8844 8.99621 18.0826 9.35706 17.1203C9.35706 17.0668 9.37043 17.0133 9.39716 16.9599C9.71792 16.158 10.4797 15.5967 11.3217 15.5967C11.8429 15.5566 12.3241 15.7169 12.6849 15.9575C13.2863 16.3585 14.0882 16.3986 14.7297 16.1179ZM21.5057 16.5991C21.5057 16.2783 21.3052 15.9576 21.0245 15.8373C20.8107 15.7037 20.6236 15.5566 20.4632 15.3962C20.2227 15.1557 19.8217 15.1156 19.501 15.2359L14.0882 17.5613C13.8476 17.6415 13.6873 17.8821 13.6472 18.1227V18.1627C13.6071 18.4835 13.8075 18.8043 14.1283 18.9246L19.1401 20.9293C19.541 21.1297 20.0222 20.9693 20.3429 20.6085C20.5033 20.4214 20.7038 20.261 20.9444 20.1274C21.3052 19.9269 21.5057 19.566 21.5057 19.2052V16.5991ZM21.5057 6.45514C21.5057 5.49288 21.1448 4.53067 20.4632 3.80897C20.4632 3.80897 20.4499 3.79557 20.4231 3.76884C19.9019 3.20752 19.1 2.92687 18.3382 3.08725C15.4514 3.64857 12.7651 4.85137 10.3995 6.65562C10.159 6.81599 10.0788 7.13681 10.1189 7.41747C10.1189 7.41747 10.1189 7.43078 10.1189 7.45751C10.1589 7.73817 10.3193 7.97873 10.6 8.05892C12.284 8.78062 18.1778 11.3467 19.942 12.0684C20.2227 12.1886 20.5434 12.1486 20.784 11.9882C20.8642 11.908 20.9577 11.8546 21.0646 11.8279C21.3453 11.6675 21.5057 11.3868 21.5057 11.066V6.45514ZM22.5882 11.066C22.5882 11.3467 22.7486 11.6674 23.0293 11.7877C23.1095 11.8412 23.203 11.8946 23.3099 11.9481C23.5505 12.1485 23.8712 12.1886 24.1519 12.0684C25.876 11.3066 31.81 8.78062 33.4939 8.05892C33.7345 7.93864 33.935 7.73817 33.975 7.45751C33.975 7.43078 33.975 7.40407 33.975 7.37734C34.0151 7.09668 33.8949 6.81605 33.6944 6.61558C31.3288 4.85143 28.6425 3.64857 25.7557 3.08725C24.9939 2.92687 24.192 3.20752 23.6307 3.76884C23.6307 3.76884 23.6307 3.78224 23.6307 3.80897C22.9491 4.49058 22.5882 5.45278 22.5882 6.45514V11.066ZM30.4066 18.1227V18.0825C30.3666 17.842 30.2062 17.6415 30.0057 17.5212L24.5529 15.1958C24.2321 15.0755 23.8713 15.1156 23.6307 15.3962C23.4703 15.5566 23.2832 15.6902 23.0694 15.7972C22.7887 15.9575 22.5882 16.2382 22.5882 16.5991V19.1651C22.5882 19.5259 22.7887 19.8868 23.1095 20.0873C23.35 20.2209 23.5639 20.3947 23.751 20.6085C24.0316 20.9693 24.5128 21.0897 24.9538 20.9293L29.9656 18.9246C30.2864 18.7642 30.4868 18.4434 30.4066 18.1227ZM41.0317 18.6439C40.5505 15.9977 39.5482 13.5118 38.0647 11.2665C37.5435 10.5448 36.7416 10.0636 35.8595 9.94334C35.6991 9.94334 35.5387 9.91663 35.3784 9.86317C35.1645 9.78298 34.964 9.66274 34.7769 9.50236C34.376 9.18161 33.7746 9.10142 33.2934 9.30189L24.633 13.0307C24.3925 13.1109 24.2722 13.3514 24.2722 13.592V13.6321C24.3123 13.8326 24.4326 13.9929 24.593 14.0731L29.3241 16.0778C30.0057 16.3986 30.7675 16.3184 31.409 15.9175C31.7699 15.6769 32.2109 15.5566 32.7722 15.5566C33.6142 15.5566 34.376 16.1179 34.6567 16.9198C34.6834 16.9733 34.7101 17.0267 34.7368 17.0802C35.0977 18.0424 35.8194 18.8443 36.7817 19.2854C37.5435 19.6061 38.4255 19.967 39.027 20.2477C39.5081 20.4482 40.0694 20.3679 40.4704 20.0071C40.4704 20.0071 40.4837 20.0071 40.5104 20.0071C40.9114 19.6863 41.1119 19.1651 41.0317 18.6439Z" fill="#454EEC"/>
<path d="M73.6534 11.7896C73.6266 11.8965 73.6133 12.0034 73.6133 12.1104C73.6133 15.9861 73.6133 19.8485 73.6133 23.6976C73.6534 24.0985 73.6133 24.0985 73.2123 24.0985C72.7713 24.0985 72.2902 24.0986 71.809 24.1387C71.5685 24.1387 71.4883 24.0584 71.4883 23.7778C71.4883 19.4476 71.4883 10.0655 71.4883 9.70468C71.6086 9.70468 73.7336 9.70465 74.6958 9.66455C74.8963 9.66455 74.9765 9.74478 75.0567 9.90516C76.5535 13.4335 78.0504 16.9751 79.5473 20.5302C79.5874 20.6104 79.6274 20.6905 79.6675 20.8108C79.7477 20.6905 79.7878 20.6504 79.8279 20.5702C81.2981 17.0419 82.7815 13.5136 84.2784 9.98533C84.3586 9.78485 84.4789 9.66455 84.7595 9.66455C85.6951 9.69128 86.6306 9.69128 87.5662 9.66455C87.8067 9.66455 87.8468 9.74472 87.8468 9.94519C87.8468 14.5694 87.8468 19.1937 87.8468 23.8179C87.8468 24.0184 87.8067 24.1386 87.5662 24.0985C87.0583 24.0985 86.5504 24.0985 86.0426 24.0985C85.7619 24.1386 85.7218 24.0183 85.7218 23.7778C85.7218 19.902 85.7218 16.0129 85.7218 12.1104C85.7218 12.0034 85.7218 11.8965 85.7218 11.7896C85.6951 11.7896 85.6817 11.7896 85.6817 11.7896C85.6283 11.8965 85.5748 12.0034 85.5213 12.1104C83.8641 15.9861 82.2069 19.8752 80.5496 23.7778C80.4694 24.0584 80.3091 24.1386 80.0685 24.0985C79.7745 24.0985 79.4938 24.0985 79.2265 24.0985C79.026 24.1386 78.9058 24.0585 78.8256 23.858C77.743 21.2519 74.4152 13.3533 73.8138 12.0302C73.787 11.9233 73.7469 11.8296 73.6935 11.7494C73.6935 11.7762 73.6801 11.7896 73.6534 11.7896Z" fill="#454EEC"/>
<path fill-rule="evenodd" clip-rule="evenodd" d="M122.245 24.1355H120.521C120.2 24.1355 119.919 24.1355 119.639 24.1355C119.438 24.1355 119.358 24.0954 119.238 23.935C118.035 22.1441 116.832 20.3399 115.629 18.5223C115.509 18.3619 115.429 18.2817 115.228 18.2817C114.453 18.3084 113.691 18.3084 112.943 18.2817C112.702 18.2817 112.662 18.3618 112.662 18.5623C112.662 20.2997 112.662 22.0372 112.662 23.7746V24.1355H110.457V9.66137C110.484 9.66137 110.524 9.66137 110.577 9.66137C112.742 9.66137 114.908 9.62132 117.073 9.7015C118.516 9.7015 119.839 10.1826 120.801 11.3453C122.525 13.35 121.884 16.4374 119.518 17.6402C118.997 17.9209 118.436 18.0812 117.875 18.2817C119.291 20.2062 120.748 22.1575 122.245 24.1355ZM116.792 16.4374C117.474 16.4374 118.115 16.2369 118.636 15.836C119.839 14.9138 119.879 13.1897 118.757 12.2675C118.155 11.7463 117.433 11.5859 116.672 11.5859C115.442 11.5859 114.199 11.5859 112.943 11.5859H112.702C112.662 11.6661 112.662 11.7463 112.662 11.7864C112.662 13.2565 112.662 14.7401 112.662 16.2369C112.662 16.3973 112.742 16.4374 112.903 16.4374C114.186 16.4374 115.509 16.4374 116.792 16.4374Z" fill="#1D1D23"/>
<path d="M54 9.66455C54.7217 9.66455 55.4033 9.66459 56.0448 9.70468C56.0849 9.70468 56.1651 9.78489 56.2052 9.82499C56.2453 9.90518 56.2052 10.0254 56.2052 10.1056C56.2052 12.9122 56.2052 15.7188 56.2052 18.5255C56.2052 19.2071 56.3255 19.8486 56.6061 20.45C57.1274 21.5727 58.0495 22.1339 59.2524 22.2943C59.8404 22.3745 60.4151 22.3344 60.9764 22.174C62.3396 21.773 63.0613 20.8109 63.3019 19.4477C63.3821 19.0868 63.3821 18.7259 63.3821 18.365C63.4088 15.5851 63.4222 12.8053 63.4222 10.0255C63.4222 9.66461 63.4222 9.66455 63.743 9.66455C64.3444 9.66455 64.9458 9.66455 65.5472 9.66455C65.5739 9.74474 65.5873 9.82497 65.5873 9.90516C65.5873 12.9523 65.6274 15.9995 65.5873 19.0066C65.5071 21.6929 63.8632 23.7377 61.1368 24.1787C59.934 24.4193 58.7311 24.3792 57.5684 23.9782C55.6439 23.2966 54.5212 21.8934 54.1203 19.8886C54.0401 19.4877 54.0401 19.0467 54.0401 18.6056C54.0134 15.7456 54 12.8988 54 10.0655C54 9.94521 54 9.82493 54 9.66455Z" fill="#454EEC"/>
<path d="M189.551 24.1387C188.749 24.1387 188.028 24.1387 187.266 24.1387C187.186 24.1387 187.065 24.0184 187.025 23.8981C186.33 22.1072 185.649 20.3163 184.981 18.5255C184.125 16.3069 183.27 14.075 182.414 11.8297C182.374 11.7495 182.334 11.6693 182.294 11.549C182.134 11.9098 182.014 12.2306 181.893 12.5513C180.45 16.3469 179.006 20.1292 177.563 23.8981C177.483 24.0585 177.403 24.1387 177.242 24.1387C176.521 24.1387 175.799 24.1387 175.037 24.1387C175.238 23.6575 175.398 23.1764 175.598 22.7354C177.282 18.4319 178.98 14.1418 180.69 9.86502C180.731 9.70465 180.811 9.66455 181.011 9.66455C181.867 9.66455 182.722 9.66455 183.577 9.66455C183.738 9.66455 183.858 9.70465 183.898 9.86502C185.769 14.5694 187.627 19.2738 189.471 23.9782C189.511 24.0183 189.511 24.0585 189.551 24.1387Z" fill="#1D1D23"/>
<path d="M146.223 22.134C148.749 22.134 151.194 22.134 153.64 22.134C153.64 22.8156 153.64 23.4571 153.64 24.1387C150.433 24.1387 147.265 24.1387 144.018 24.1387C144.018 19.3273 144.018 14.5026 144.018 9.66455C144.739 9.66455 145.501 9.66455 146.223 9.66455C146.223 13.8344 146.223 17.9641 146.223 22.134Z" fill="#1D1D23"/>
<path d="M169.154 22.134C169.154 22.8156 169.154 23.4571 169.154 24.1387C165.946 24.1387 162.739 24.1387 159.531 24.1387C159.531 19.3273 159.531 14.5026 159.531 9.66455C160.253 9.66455 160.975 9.66455 161.736 9.66455C161.736 13.8344 161.736 17.9641 161.736 22.134C164.222 22.134 166.668 22.134 169.154 22.134Z" fill="#1D1D23"/>
<path d="M137.928 15.6392C137.928 16.2807 137.928 16.8821 137.928 17.5236C137.794 17.5236 137.674 17.5236 137.567 17.5236C135.241 17.5236 132.929 17.5236 130.63 17.5236C130.39 17.5236 130.31 17.5637 130.31 17.8042C130.31 19.1674 130.31 20.5306 130.31 21.8938C130.31 21.974 130.31 22.0676 130.31 22.1745C132.956 22.1745 135.522 22.1745 138.168 22.1745C138.168 22.816 138.168 23.4576 138.168 24.1392C134.827 24.1392 131.486 24.1392 128.145 24.1392C128.145 21.3058 128.145 18.4725 128.145 15.6392C131.406 15.6392 134.667 15.6392 137.928 15.6392Z" fill="#1D1D23"/>
<path d="M128.145 11.5901C128.145 10.9486 128.145 10.3471 128.145 9.66553C131.472 9.66553 134.8 9.66553 138.168 9.66553C138.168 10.307 138.168 10.9486 138.168 11.5901C134.84 11.5901 131.512 11.5901 128.145 11.5901Z" fill="#1D1D23"/>
<path fill-rule="evenodd" clip-rule="evenodd" d="M104.568 20.4492C104.568 21.1977 104.367 21.8792 103.966 22.494C103.592 23.082 103.031 23.5632 102.282 23.9374C101.534 24.2849 100.665 24.4587 99.6762 24.4587H93.7422V9.54346H99.3955C100.411 9.54346 101.293 9.71722 102.042 10.0647C102.763 10.4122 103.311 10.88 103.686 11.468C104.06 12.0293 104.247 12.6709 104.247 13.3926C104.247 14.2479 104.02 14.9563 103.565 15.5176C103.084 16.1056 102.469 16.5333 101.721 16.8006C102.523 16.9342 103.191 17.3486 103.726 18.0436C104.287 18.7653 104.568 19.5671 104.568 20.4492ZM96.188 15.7982H99.195C99.9969 15.7982 100.625 15.6245 101.079 15.277C101.534 14.9028 101.761 14.3682 101.761 13.6732C101.761 13.005 101.534 12.4838 101.079 12.1096C100.625 11.7353 99.9969 11.5482 99.195 11.5482H96.188V15.7982ZM102.122 20.1685C102.122 19.4468 101.881 18.8722 101.4 18.4445C100.892 18.0168 100.224 17.8029 99.3955 17.8029H96.188V22.4539H99.4757C100.304 22.4539 100.959 22.2535 101.44 21.8525C101.895 21.4516 102.122 20.8902 102.122 20.1685Z" fill="#454EEC"/>
</svg>
