<svg width="488" height="377" viewBox="0 0 488 377" fill="none" xmlns="http://www.w3.org/2000/svg">
<path fill-rule="evenodd" clip-rule="evenodd" d="M487.199 246.195C484.914 256.998 475.357 265.101 464.346 265.516C453.334 265.932 443.985 259.284 440.246 249.934C437.337 242.455 431.104 236.638 423.625 233.522L391.63 219.602C384.774 216.693 377.087 217.109 370.231 219.809C367.114 221.056 363.582 221.887 360.05 221.679C354.649 221.471 349.87 219.394 345.923 216.485L276.323 244.325C271.961 245.987 268.429 249.519 266.351 253.882C264.689 258.037 261.78 261.569 258.041 264.062C253.054 267.594 249.73 273.204 249.73 279.229V317.456C249.73 323.481 252.847 328.883 257.833 332.207C263.858 336.57 268.013 343.842 268.013 351.944C268.013 365.241 257.21 376.044 243.913 376.044C230.616 376.044 219.813 365.241 219.813 351.944C219.813 343.842 223.968 336.57 229.993 332.207C234.979 328.883 238.096 323.481 238.096 317.456V279.229C238.096 273.204 234.772 267.594 229.785 264.062C226.046 261.569 223.137 258.037 221.475 253.882C219.397 249.519 215.865 245.987 211.503 244.325L141.903 216.485C137.956 219.394 133.177 221.471 127.776 221.679C124.244 221.887 120.712 221.056 117.595 219.809C110.739 217.109 103.052 216.693 96.1961 219.602L64.2012 233.522C56.7219 236.638 50.4891 242.455 47.5804 249.934C43.8408 259.284 34.4916 265.932 23.4804 265.516C12.4691 265.101 2.91218 256.998 0.626831 246.195C-1.65852 236.222 2.49666 226.458 9.976 221.056C16.4165 216.277 21.195 209.629 22.6493 201.734C28.2588 171.817 40.1011 143.354 57.1374 118.215C62.7469 109.697 64.6167 99.7245 63.1624 89.5443C62.7469 86.6356 62.8854 83.5885 63.5779 80.4029C66.0711 70.2226 75.0046 62.3278 85.6004 61.4967C88.232 61.3582 90.7251 61.566 93.0797 62.1201C101.39 63.9899 109.908 62.7433 116.764 57.9649C143.773 39.4743 174.106 27.2165 206.309 21.8147C213.165 20.7759 219.397 17.0363 223.137 11.219C227.708 4.36297 235.187 0 243.913 0C252.639 0 260.118 4.36297 264.689 11.219C268.429 17.0363 274.661 20.7759 281.517 21.8147C313.72 27.2165 344.053 39.4743 371.062 57.9649C377.918 62.7433 386.436 63.9899 394.746 62.1201C397.101 61.566 399.594 61.3582 402.226 61.4967C412.821 62.3278 421.755 70.2226 424.248 80.4029C424.941 83.5885 425.079 86.6356 424.664 89.5443C423.209 99.7245 425.079 109.697 430.689 118.215C447.725 143.354 459.567 171.817 465.177 201.734C466.631 209.629 471.409 216.277 477.85 221.056C485.329 226.458 489.485 236.222 487.199 246.195ZM163.095 178.258L215.45 156.027C217.528 154.988 218.982 153.119 218.982 150.833L219.19 150.626C219.19 147.925 217.735 145.432 215.242 144.393L119.257 103.256C113.856 100.971 107.623 101.802 103.052 105.334C101.182 106.996 98.6892 108.45 96.1961 109.281C94.3955 109.835 92.5949 110.251 90.7944 110.528C81.0297 111.567 72.3038 116.761 66.6943 125.071C50.0736 149.587 38.8545 177.219 33.8683 206.513C32.8295 212.122 35.1149 217.94 39.6856 221.471C39.8241 221.471 39.9626 221.541 40.1011 221.679C44.6718 225.419 50.4891 226.458 55.8908 224.172C62.7469 221.264 72.3038 217.108 81.0297 213.369C91.6254 208.798 99.5203 200.072 103.468 189.269C103.606 188.715 103.814 188.161 104.091 187.607C107.623 178.673 115.725 172.44 125.282 172.233C131.307 172.233 136.294 173.895 140.449 176.595C147.097 180.958 155.823 181.374 163.095 178.258ZM238.096 183.659C238.096 179.92 235.81 176.595 232.486 174.933C230.27 173.687 228.262 172.163 226.461 170.363C223.76 167.662 219.397 167.038 215.865 168.493L156.031 194.255C153.33 195.294 151.668 197.579 151.252 200.488L151.045 200.695C150.629 204.435 152.707 207.967 156.239 209.421L211.71 231.652C216.489 233.522 221.683 232.067 225.007 228.12C226.877 225.834 229.162 223.965 231.863 222.51C235.603 220.225 238.096 216.485 238.096 212.122V183.659ZM238.096 71.8847C238.096 60.8735 233.941 50.2778 226.253 42.3829C226.253 42.3829 226.253 42.3137 226.253 42.1752C220.228 35.9424 211.503 32.826 202.984 34.488C170.989 40.7208 141.072 54.0175 115.102 73.7546C112.609 75.6244 111.363 78.9485 111.986 82.2727C111.986 82.4112 111.986 82.619 111.986 82.896C112.401 85.8046 114.479 88.5055 117.18 89.5443C135.67 97.6469 201.322 125.694 220.644 133.797C223.76 135.251 227.292 134.628 229.993 132.758C230.963 132.066 232.001 131.512 233.109 131.096C236.226 129.434 238.096 126.11 238.096 122.578V71.8847ZM249.73 122.786C249.73 126.318 251.6 129.642 254.717 131.096C255.825 131.65 256.863 132.273 257.833 132.966C260.534 134.836 264.066 135.459 267.182 134.005C286.504 125.902 352.156 97.8546 370.646 89.752C373.347 88.5055 375.425 86.0124 375.84 82.896C375.84 82.7575 375.84 82.619 375.84 82.4804C376.463 79.1563 375.217 75.8321 372.724 73.9623C346.754 54.2252 316.837 40.9286 284.842 34.6958C276.323 33.0337 267.598 35.9424 261.573 42.3829C261.573 42.3829 261.573 42.4522 261.573 42.5907C253.885 50.4855 249.73 61.0812 249.73 71.8847V122.786ZM336.781 200.903L336.574 200.695C336.158 197.787 334.496 195.502 331.795 194.463L271.961 168.701C268.429 167.246 264.066 167.87 261.365 170.57C259.564 172.371 257.556 173.895 255.34 175.141C252.016 176.803 249.73 180.127 249.73 183.867V212.33C249.73 216.693 252.223 220.64 255.963 222.718C258.664 224.172 260.949 226.042 262.819 228.328C266.143 232.275 271.337 233.729 276.116 231.859L331.587 209.629C335.119 208.383 337.197 204.643 336.781 200.903ZM453.958 206.721C448.971 177.634 437.752 149.794 421.132 125.279C415.522 116.969 406.796 111.775 397.032 110.736C395.231 110.597 393.43 110.182 391.63 109.489C389.137 108.658 386.644 107.204 384.774 105.542C380.203 102.01 373.97 101.179 368.569 103.464L272.584 144.6C270.091 145.639 268.636 148.132 268.636 150.833L268.844 151.041C268.844 153.326 270.298 155.196 272.376 156.235L324.731 178.465C332.003 181.789 340.729 181.166 347.377 176.803C351.532 174.102 356.519 172.44 362.544 172.648C372.101 172.648 380.203 179.089 383.735 187.814C384.012 188.368 384.22 188.922 384.358 189.477C388.306 200.28 396.201 209.214 406.796 213.577C415.522 217.316 425.079 221.471 431.935 224.38C437.337 226.665 443.154 225.627 447.725 222.095C447.863 221.956 448.002 221.818 448.14 221.679C452.711 218.147 454.996 212.33 453.958 206.721Z" fill="#8C9FB1"/>
</svg>
