<svg width="1500" height="1500" viewBox="0 0 1500 1500" fill="none" xmlns="http://www.w3.org/2000/svg">
    <defs>
        <linearGradient clipPathUnits="userSpaceOnUse" id="logo-gradient" x1="50%" y1="0%" x2="50%" y2="100%">

            <stop offset="0%" stop-color="#454EEC">
                <animate attributeName="stop-color" values="#454EEC; #98F8A0; #454EEC" dur="4s"
                    repeatCount="indefinite"></animate>
            </stop>

            <stop offset="100%" stop-color="#98F8A0">
                <animate attributeName="stop-color" values="#98F8A0; #454EEC; #98F8A0" dur="4s"
                    repeatCount="indefinite"></animate>
            </stop>

        </linearGradient>
    </defs>
    <style>
        .dashed {
            stroke-dasharray: 4700;
            stroke-dashoffset: 4700;
            animation: dash 4s infinite;
        }


        .gradient-fill {
            fill: url(#logo-gradient);
        }

        .gradient-stroke {
            stroke: url(#logo-gradient);
            stroke-linecap: round;
        }

        @keyframes dash {
            from {
                stroke-dashoffset: 4700;
            }


            50% {
                stroke-dashoffset: 0;

            }

            to {
                stroke-dashoffset: -4700;
            }
        }
    </style>
    <path class="dashed gradient-stroke"
        d="M750 4C1160.9 4 1496 339.1 1496 750C1496 1160.9 1160.9 1496 750 1496C339.1 1496 4 1160.9 4 750C4 339.1 339.1 4 750 4Z"
        stroke="#1D1D23" stroke-width="8" />
    <path class="gradient-fill" fill-rule="evenodd" clip-rule="evenodd"
        d="M1407.31 907.67C1401.13 936.88 1375.29 958.788 1345.51 959.912C1315.74 961.035 1290.46 943.06 1280.35 917.781C1272.49 897.558 1255.63 881.829 1235.41 873.403L1148.9 835.766C1130.36 827.902 1109.58 829.025 1091.04 836.328C1082.62 839.698 1073.07 841.945 1063.52 841.383C1048.91 840.822 1035.99 835.204 1025.32 827.34L837.132 902.614C825.336 907.108 815.786 916.657 810.169 928.454C805.675 939.689 797.81 949.239 787.699 955.98C774.217 965.529 765.229 980.697 765.229 996.987V1100.35C765.229 1116.64 773.655 1131.24 787.137 1140.23C803.428 1152.03 814.663 1171.69 814.663 1193.6C814.663 1229.55 785.452 1258.76 749.5 1258.76C713.548 1258.76 684.337 1229.55 684.337 1193.6C684.337 1171.69 695.572 1152.03 711.863 1140.23C725.345 1131.24 733.771 1116.64 733.771 1100.35V996.987C733.771 980.697 724.783 965.529 711.301 955.98C701.19 949.239 693.325 939.689 688.831 928.454C683.214 916.657 673.664 907.108 661.867 902.614L473.682 827.34C463.009 835.204 450.089 840.822 435.484 841.383C425.934 841.945 416.384 839.698 407.958 836.328C389.421 829.025 368.636 827.902 350.098 835.766L263.589 873.403C243.366 881.829 226.514 897.558 218.65 917.781C208.538 943.06 183.26 961.035 153.487 959.912C123.714 958.788 97.8741 936.88 91.6948 907.67C85.5156 880.706 96.7506 854.304 116.973 839.698C134.388 826.778 147.308 808.802 151.24 787.456C166.407 706.564 198.427 629.605 244.49 561.634C259.657 538.602 264.713 511.638 260.781 484.113C259.657 476.248 260.032 468.009 261.904 459.396C268.645 431.87 292.8 410.524 321.449 408.277C328.565 407.902 335.306 408.464 341.672 409.962C364.142 415.018 387.173 411.647 405.711 398.727C478.738 348.732 560.753 315.589 647.824 300.983C666.361 298.175 683.214 288.063 693.325 272.334C705.684 253.797 725.907 242 749.5 242C773.093 242 793.316 253.797 805.675 272.334C815.786 288.063 832.639 298.175 851.176 300.983C938.247 315.589 1020.26 348.732 1093.29 398.727C1111.83 411.647 1134.86 415.018 1157.33 409.962C1163.69 408.464 1170.44 407.902 1177.55 408.277C1206.2 410.524 1230.35 431.87 1237.1 459.396C1238.97 468.009 1239.34 476.248 1238.22 484.113C1234.29 511.638 1239.34 538.602 1254.51 561.634C1300.57 629.605 1332.59 706.564 1347.76 787.456C1351.69 808.802 1364.61 826.778 1382.03 839.698C1402.25 854.304 1413.48 880.706 1407.31 907.67ZM530.981 723.978L672.541 663.872C678.158 661.063 682.09 656.007 682.09 649.828L682.652 649.266C682.652 641.964 678.72 635.223 671.979 632.414L412.452 521.188C397.847 515.009 380.994 517.256 368.636 526.805C363.58 531.299 356.839 535.232 350.098 537.479C345.23 538.977 340.361 540.1 335.493 540.849C309.091 543.658 285.497 557.701 270.33 580.171C225.391 646.457 195.056 721.17 181.574 800.376C178.766 815.543 184.945 831.272 197.303 840.822C197.678 840.822 198.052 841.009 198.427 841.383C210.785 851.495 226.514 854.304 241.119 848.124C259.657 840.26 285.497 829.025 309.091 818.914C337.74 806.555 359.086 782.962 369.759 753.751C370.134 752.253 370.696 750.755 371.445 749.257C380.994 725.102 402.902 708.25 428.743 707.688C445.033 707.688 458.515 712.182 469.75 719.485C487.726 731.281 511.32 732.405 530.981 723.978ZM733.771 738.584C733.771 728.472 727.592 719.484 718.604 714.991C712.612 711.62 707.182 707.501 702.313 702.632C695.011 695.329 683.214 693.644 673.664 697.576L511.881 767.233C504.579 770.042 500.085 776.221 498.961 784.085L498.399 784.647C497.276 794.758 502.893 804.308 512.443 808.24L662.429 868.347C675.349 873.403 689.393 869.471 698.381 858.798C703.437 852.618 709.616 847.563 716.919 843.63C727.03 837.451 733.771 827.34 733.771 815.543V738.584ZM733.771 436.364C733.771 406.592 722.536 377.943 701.752 356.596C701.752 356.596 701.752 356.409 701.752 356.035C685.461 339.182 661.867 330.756 638.836 335.25C552.327 352.102 471.435 388.054 401.217 441.42C394.476 446.476 391.106 455.464 392.791 464.452C392.791 464.826 392.791 465.388 392.791 466.137C393.914 474.001 399.532 481.304 406.835 484.113C456.83 506.021 634.342 581.857 686.584 603.765C695.01 607.697 704.56 606.012 711.863 600.956C714.484 599.084 717.293 597.585 720.289 596.462C728.715 591.968 733.771 582.98 733.771 573.43V436.364ZM765.229 573.992C765.229 583.542 770.285 592.53 778.711 596.462C781.707 597.96 784.516 599.645 787.137 601.518C794.44 606.574 803.989 608.259 812.416 604.327C864.658 582.418 1042.17 506.583 1092.17 484.674C1099.47 481.304 1105.09 474.563 1106.21 466.137C1106.21 465.762 1106.21 465.388 1106.21 465.013C1107.89 456.025 1104.52 447.037 1097.78 441.982C1027.56 388.616 946.673 352.664 860.164 335.812C837.133 331.318 813.539 339.182 797.248 356.596C797.248 356.596 797.248 356.784 797.248 357.158C776.464 378.504 765.229 407.153 765.229 436.364V573.992ZM1000.6 785.209L1000.04 784.647C998.915 776.783 994.421 770.603 987.119 767.795L825.336 698.138C815.786 694.206 803.989 695.891 796.687 703.194C791.818 708.062 786.388 712.182 780.396 715.552C771.408 720.046 765.229 729.034 765.229 739.146V816.105C765.229 827.902 771.97 838.575 782.081 844.192C789.384 848.124 795.563 853.18 800.619 859.359C809.607 870.033 823.651 873.965 836.571 868.909L986.557 808.802C996.107 805.432 1001.72 795.32 1000.6 785.209ZM1317.43 800.938C1303.94 722.293 1273.61 647.019 1228.67 580.733C1213.5 558.263 1189.91 544.22 1163.51 541.411C1158.64 541.036 1153.77 539.913 1148.9 538.04C1142.16 535.793 1135.42 531.861 1130.36 527.367C1118.01 517.818 1101.15 515.571 1086.55 521.75L827.021 632.975C820.28 635.784 816.348 642.525 816.348 649.828L816.91 650.39C816.91 656.569 820.842 661.625 826.459 664.433L968.019 724.54C987.68 733.528 1011.27 731.843 1029.25 720.046C1040.48 712.743 1053.97 708.25 1070.26 708.811C1096.1 708.811 1118.01 726.225 1127.56 749.819C1128.3 751.317 1128.87 752.815 1129.24 754.313C1139.91 783.524 1161.26 807.679 1189.91 819.475C1213.5 829.587 1239.34 840.822 1257.88 848.686C1272.49 854.865 1288.21 852.057 1300.57 842.507C1300.95 842.133 1301.32 841.758 1301.7 841.383C1314.06 831.834 1320.23 816.105 1317.43 800.938Z"
        fill="white" />
</svg>